<mxfile host="app.diagrams.net" modified="2022-04-27T11:49:36.572Z" agent="5.0 (Windows NT 10.0; Win64; x64) AppleWebKit/537.36 (KHTML, like Gecko) Chrome/95.0.4638.54 Safari/537.36" etag="4A3jK3-w4vbsFyyO6dx0" version="17.4.6" type="github">
  <diagram id="C5RBs43oDa-KdzZeNtuy" name="Page-1">
    <mxGraphModel dx="2249" dy="706" grid="1" gridSize="10" guides="1" tooltips="1" connect="1" arrows="1" fold="1" page="1" pageScale="1" pageWidth="827" pageHeight="1169" math="0" shadow="0">
      <root>
        <mxCell id="WIyWlLk6GJQsqaUBKTNV-0" />
        <mxCell id="WIyWlLk6GJQsqaUBKTNV-1" parent="WIyWlLk6GJQsqaUBKTNV-0" />
        <mxCell id="zfVKRkibSDTo7ycwS0ug-4" value="" style="edgeStyle=orthogonalEdgeStyle;rounded=0;orthogonalLoop=1;jettySize=auto;html=1;" edge="1" parent="WIyWlLk6GJQsqaUBKTNV-1" source="zfVKRkibSDTo7ycwS0ug-2" target="zfVKRkibSDTo7ycwS0ug-3">
          <mxGeometry relative="1" as="geometry" />
        </mxCell>
        <mxCell id="zfVKRkibSDTo7ycwS0ug-6" value="" style="edgeStyle=orthogonalEdgeStyle;rounded=0;orthogonalLoop=1;jettySize=auto;html=1;" edge="1" parent="WIyWlLk6GJQsqaUBKTNV-1" source="zfVKRkibSDTo7ycwS0ug-2" target="zfVKRkibSDTo7ycwS0ug-5">
          <mxGeometry relative="1" as="geometry" />
        </mxCell>
        <mxCell id="zfVKRkibSDTo7ycwS0ug-2" value="全面依法治国的目标" style="whiteSpace=wrap;html=1;fillColor=#fff2cc;strokeColor=#d6b656;" vertex="1" parent="WIyWlLk6GJQsqaUBKTNV-1">
          <mxGeometry x="-790" y="130" width="120" height="37.5" as="geometry" />
        </mxCell>
        <mxCell id="zfVKRkibSDTo7ycwS0ug-3" value="两个建设" style="whiteSpace=wrap;html=1;fillColor=#fff2cc;strokeColor=#d6b656;" vertex="1" parent="WIyWlLk6GJQsqaUBKTNV-1">
          <mxGeometry x="-610" y="60" width="120" height="37.5" as="geometry" />
        </mxCell>
        <mxCell id="zfVKRkibSDTo7ycwS0ug-5" value="太监生了一个儿子，还说为国家。" style="whiteSpace=wrap;html=1;fillColor=#fff2cc;strokeColor=#d6b656;" vertex="1" parent="WIyWlLk6GJQsqaUBKTNV-1">
          <mxGeometry x="-610" y="210" width="120" height="37.5" as="geometry" />
        </mxCell>
        <mxCell id="zfVKRkibSDTo7ycwS0ug-7" value="" style="shape=image;imageAspect=0;aspect=fixed;verticalLabelPosition=bottom;verticalAlign=top;image=data:image/webp,UklGRkyNAABXRUJQVlA4IECNAACQrQGdASqEAQYCPpE8mEkloyIkKlc8ULASCWVsPr5IO7ZiZ0AkkupE2h4wBEvTKe6CQGnEWvW/DSnq4Yx+/X2aivFP3Jh9fTh0/McwuDTyLfQ+t39B+6f6HrI3S/ff9fzL++igXtL/cfEUxs7SUA/6z/kvM+/Y88Pt77Af9M85P9z42P4b/Vftr8Bn9H/un/p/y3u3/33/6/23+89VX6//qf/r/rfgb/YP0rv/v7sv2b/+nu5fsX/6D2oNC4QSH5XuOf0GW4B1GZ8oEocQCxbQKg+PFQZbf1y3eSt9p77siuaOYXHsAhzyeYc2//uw7fCNQdqcAjwZyVMXW3ZqGR1llY/UanoSHkUpA5dlIP2zHCnrkSre3WyZaPhbS8kc2EZhkjrgfFUX2SiSnw9lOz4Xx2+Wfrx/36D0p5D6bujaQ/+rz6NGY5sZRrr6qgrNd8UK96bNlZqQHj7WHLSLg54uWMK6rHbpaFoAecSHp2c8RzTu0Xw4a8qHJpput89NJ1b4dfPt5jUv3EFwFUS7JQ6B/A6E+XzciVDJ1pnLjPRh59n+gHPTQzLrlGMqz7L2ttW63/9DLwFpDa9Tr2zLMi+IOgOSWYheIj3HY9o9JUTyMh9X8GyUlE86WJZdTnqEiKt0Z62T3zimw3ufXX0bjKY8o72Vsmfxxcaa+ZDtV+IE9yeLQc6AzIgebBT1F2GeQZAHwt7nWyvM9/stWI2Oxsi8TrYl6HRJpDwIOm9CS1CX/QJcHDRqHdyJoRtgdFE0n34t/KqtZmwsaikElB7mkmWGEZ+eRZPzVJKKIHFhNrr4cLlRJECA1mV1gaMBc/E7ivSQKOT4+B+tVnmChpJs8w2CrQmJvmL6NudbRwK5UsfcKO77RrVeV609eRVlqwIs4JI5tI0O3z2hx0LFFSek4dJ5shaD0GOKb44Upyi/K9ghfDNPCcZ97TceX5kKk0eApPM5IOZwkZ2QM7J6zEL3te/H/mX4F/nSA8X/Z9vg5OrJTFjSlLHTBjarvbMFOOO1qrAYWeJ7X690w6VUwcrDktAnxW0srriHS+iCjpXFfBzJLIgweH6EW+5D94JWGV3EFrtpY2wa4bIqqAHD6nGFbDSRWV2FVu4sMS/+pXHTCUeeR4vsLdivWVhQpbiJud9qUc4+WZLABqFHDV/aXI1bZs4jyR1dS/g5kjtXU8kfXG2A7ObftAu3q2Jl5QdycrjHI1Ua+PHYkb8c83bknTk8/qqNf4w1diY2FL8Mtt9tBso4/4H4j3Z+0V/xpLQGOibVlD8DTY2VcwqK3IMOk/EWnnyI5I0vyhYcRXpBbm4u72dY+UYx6tdr6qCiHYuGA/JWJ5gnWDBnH6u1V18qOv1WPj9Hz9ZSklUKUP2qycZ7Fr8De95KgfvplBLq+9ZnZ5KR+QPT6bGPoLtdhXTm7IbO7X/fNkgf/TYGX4Roh4fiuUAjOR8LTVF2jDyvgAFwiG/kGXSRL2b4znegOj2sTBJPIVsEAH9aiZtXMNTGJNLKJ+224npE7hjuzPxCo9lGW9PGdrEeGU+sizGlmt9O1iu7Ui82IgIHMrqnMHMCS3N9hYiwBXG+Na3RqFBdA21MDck6MSU+cvn9O6BehVry75QldE6WtyejXWhPIvTFWCED/qXkmfC78gXejHPMol4H497VZYYU4e024qKGSsAfrWRP36+OvWdL8yZs5t5H/oCZkjsQDlD4kULds+D0gGfs3fVmqCFd0yQquanEnXCvHljRHGcbu0EqQ3dezDqNJC8HI+YLxQB8r3dVv6Bw8NTr9yMJs8Cs0Z6Q1oHrzTzVAo7WExCiBzVHdLs2rtbXSW8I9GfHKIDOhA7n2tMvLZ3RlTDtSTdf91lQtiaeOk4I2sPOzrvhEsq+zj8yyWg/EuyGAz1tFq4OQlJB2YSQL3OsTQwURFQR7eQLISd63hcfeOtHzx/4XK2rwcuQ43DAihLcv/NdRdgJBe76ObISwU7xaSq0REl0Pz3woe4wK1W1f16bDzA4OivK6E1xHOuMY3/wIDdncqI3G0SPQfi6MUrNdiZZseMM9PKaUEm8Unx+QbURTzSFfyV+Vu3jJGXSzOU68fOof/cWJsIxdXoSE11dJTdpE8sWW8koa+fSHDs0IBGv6v8GM+jTEv0eqA7eBRLZNVq53yUvUolDrhmMTGVgCE1cbLPa8AFdqDs/Ie1baxbFiTZveVQzOv4pOAXVz3XpxeXW2xtdtUBcHujm3IYqv7rmwyBzEFsAc6gs5wP87kge91Hn6SxSjbifehEUdeOE5ye5pqSFz3Ted8QhKZ4nKo8eQtH2/0BEqD9PDyrieytJqj4GcxsGx4ay5N8SaP2OGXUeGeOMrtovEj3Luc18G1AQxTsmnosIOL5Uhnjt1POqnF+qn0+9h0clW7GoGdXjuNs/jEXeC8aFURrUzjX8jZzxxgFYOQyTTnXrR1Bq8g2r+SvFmF6UmaOkd51SLXKaZ5UUkSIeg7gELMtdIYmdu047daRNWWMLKNhNQI70J0pzMp97AzEWTv67E7qKYFQRDsLfij9IpF8PnDxBZIS1J99SOriNQL994hQxPUBjqSwwUGbLYtnxmC4we+EGjL8BvNrzggz5S87GGTFPsL7jjoOTKImlNpxyR+aqp8hMN1kX4KBRAdp7CavcxSTAFQAVyzTVTP/JrGlVM9xh45SWwzvCb9kFmfFxXRhiLZsClE3pcRZsZwbHlsMgqpTvfhmrUbsQxatiAsz3CnWeEoDF8ukB3sQwyHmYSA1aEi4ztJaJWMg46ijz6ElYaFZYiW8M4HpuX8CRh4PxQDHXB66LQMKV+oeFm6WoxSAFcIVN3Sz52MDRsT750sg2XsbmgFQyzqYDh/E4kwK8jok0Z3Ihjj0I+4cDRZuA3v3vy521QCgiCBlvr5dV8ekFkKCz4W523IU/RVAGCgAqPz567yWDKVdUxrTdnYz+3rbT53cQlrUb9iRQoM8ujEEunHPrv255ZGLXj3JrWvGbN9Xgv1eTCXzLJ8itVC1msNK7KExznmj8iAxoQJ4nVDpKRxZrs0hbKxpXtjxRPqXizdIJ3tYkzSrOfv1wPf/33GApKC4sP/+J45+EAL7SlON7tj63M6837iH0YAu5c7r1MHe3FhiQ0sI4mq4TnshIfF3JPePZ/xHRaZeblDgm5ifpcvR8dfQH50H4lfG2LmLldFWm/fIPXdc2vcKx04ZloRunjTn9Z3PhWLJlMitE1ycE5fffzIFD/dmYVMhNT29msYGg9JSJSXi1YNBLQpFuSffiLmI8AaTydeCSlmlpryuHY5QRzfc48/0TrjuXJw0jWXhJxXZTXpXMdnECKk6FpxWSNhVqMpKW6N+ty6M65YDNvMkanujVICpMPg8fMNChts4l5wP0xIGcOcbRe/aOJqcr9BJt4vMxDYGwwnQMh/9tcAgN2ORF7sJUMJFzbwidxu8iwbGszYYv+F5v36u8ZV8Iaxc/YsJxuSWfev7fYQjYtL/dPNa2LvfNfW9ZYGPgunKjIGaTaQQaK72SvGpnBGkXsIzPVAnLoaLagaGj1ZQPrQ0ZDFeNBc2LRwzWbj3kMDlNfDBZP66pxezzDSgV8tjSERrPKA31n/LI1C02nwhxE1q/gsZlW7/sgth7QZD22I6/sVVsnZOrqWwBpf0acW805ZD33zb8XUtlBcHWs7boAFlyFTx5CO3Shav3B4iOmH8hD/5josRTJYbna1Ss6f3hsahP2W4DdRpiJRdTijYsEWIBm1f2+8pNnJQO55pSRm3Jy2iq5ewqyPGebMd31Jq+JjTVjBpPWO1k2a8iX5ZwpHmUS3O/V8mcItEDF4zDqAkF60DxrO6uzUdDzpMl9zisz/Ej4hasxNFP2N5xldemmwD32OE8YtIHrd/NLyjjz/g9+uFKsMm2XgXrOfTR0CggV062cBvExd4lzjlPe52EBzcjz8IPsbhSufOnrE/Do8ZofQ4dvMUVBeIU11XaF7Y0WTFwP5jU43Z85lxe9xxpzqBOdHr6RCPvpARE3VV49PGQN76cuFKXpw1+t0sjGw4nstvoR1ox4AaImadAc974ovimvjHsdKIkH18ylVaVTImliFlsxw7Z7HgG4P7j1EFrKccxnUfTtCaAt7WAGBXGKYA5b6uqSKu2s07Ilru5zatEsL6kQAzc9wPGS/jIjvrN0Zq27NpfC6/miRUqKa/OTiDH3nrAvy3V1iHTvUkOESJlJnXVO6ubLx7LHWYLnK9F+prElkrRwAtVzIYvlD1QM3EG5B8C13NWiTHyi0g9wwh+N+l7gxYHrdm7idStQWcRfF8ut/I0ABbA1t4uRG3UNaVuVGrpQLbYcnNuaDDfPU1UO4HyGVTonry4Mu0VuSC6rtW7/xZZcyXxSqfmnGbR0GgvqI1mN5tTAv65nMmNuvUo2myx2VTtKTPOv/c7xw0wawrOEDxSgtezRB2lsBlFSmBcayxo4EjlhK0e0QeYrYTjJeqiWQZat9vjh4abJ9ab3ZriPytcQqXGZCFXTuYvgOIWZS5tNsDNb8ZT+GM+FmFpGstOi6T9X9osRY9IC+qkZ+zf+WrC/5KveSLYdoDiFqLzS/Fm193Yy5oUFEcgAP7h8AfdjQw0NcvIZ0LjCSn3RS4ZQ8wqxSeJ+3UwZZgGBTmRwFPG07X8izSBU1EEx2C26APD8KtAx0QWZBv6bmjqiDmUKOAAQJ+K5H+BXIIIPcP8bccLW6b1va0GMGX3INSeX3IChon0245rIj+AeCCWKrRgQsqecrwRTLyOAuqtb9D3TtSsE1oq5BIX5CuzR1t66yshp4HJgP6ImqKs1DkTgyA7RVZjJSqmy18Y2adCJgM5tFMb2bLWX4HCYQlIFl00oW1thBPlBj6bXvys+uz8lJlkgyp5Bj2MZ/PrGXxyK/jsJJ1NonmybPX2egFjZGTitI+onc3UPHZakLucb/mDdtX1wp8iIFQBVcU50iE+3i+gTvksNcxUP8eYHLvko1a6uA7Ak6Oaz8EQiRYT1dkm1Etgwzy0AkEHw2+LBnnvGXzwAMLl7A2EIUnnCZpHV/9THg8ZmiQPr10/5k40+PNqZANik3G7SPXmB8AdhTZN7JE+jR36OK0aR7OXffgxGvJMPzY3HDS2UdmF7GCzCDje7S77p8PghukhuKHvyVnoLCK1vFkcQ6mynsXPXDENu+Bbu6d6GGDbTWMwHvuxEThVYPvHYDSlQMe2GWYptnp1H1dMnpl2UQBfS5e8Ds4wACCQdnnvmfm9p3TVujGUmuXcECWm2/1y10+GIhkZDp43PhG4uOrNjks7yZ5vpK6CLSmtjsOTpm9xaFAm8hSz9h458DyT6MYM0IJztOfvbJ2eLRudHR0BHUSRnG+vqlr6c/BR6cEZT9jTYfg6jkDbSloc04CNkA0YngBleQHstZJIPlpUQrAn961tGk5TvM5JvSJKT4xGxcUDUBwBPNuy76OvJl9+AuafIG18g4k+dJd5djr2NcJ6CVtBDM58e02npCzlR7DrKqL52oPVpOiwjXywabGsVtY0KeNQJ7YEps2KmtsUX0Z6PwuKamcO1pY6le746jUUCiKaQ3OOQkL6kMhShd8cZUwJbY/bDXmjqYzYPZmC94Q5AO8EP9Qov43dNlYJJK0idSCY/pKVPhrk7ihtiWoaut4lHlvsBBYQ7Fz7OW+I3kyvaKUX8psVsu4Y5AVFvO/ocubfcrlF7TgTWCmm6OO0Gb+4vLjW8eJLVJHH9UjwuWhpfhNrgyMBSHwYyyxFXOW5sjFZwRqcN8V5R3OwYTZ0y/EGwGgXmWm9fyaj3+ney5wcG0bKtX4Yu6Q5GcQev98JBINV7JhjV0QmLaSryyJ1lAPes73nroKhpR1B715LtZM58IiS43SKyVA9t1PIiYwLAEGj/qfEmrmWQY5O4HuMbIAo4gDokNufrYfLfz+y0DgMcwQQtqiHo2qSW/oxm+zPQvsV7njngpUgu4D8zSlbE7v4muxI1nv7BfXlOvQaBthYBeoZgqAs/0VQIyClLUQ/Va/AwuzPV4YrEHqlnnLfjiAh97jlhAeHXaNixTnERxWolZaXe17MbIBGBcP3MUJcswy4e1uAZs4SkcsoG/1djsIb//y7FjKP5ouIXPg2mORyYzwp8Fnu3TymJ6+DDZ2CkUW0Wk+/Gys4sdK6RtNj3wEFz85inBTqZbYclVrD4sd67cdn/AeAgTydf2FjSkBPPTYoBBJy6i92pzI52V9YPqe+zWxcxiCvDvWqFwwCm9p4JhTGaqQCzHCwEvxNxsvKCqXx1Xv9Yj/P4y74tFQomrQswxrG0E/SN7lCTZvAaOjZ1ZOZAA/rVnVjM4iZEYQSeiKjwhduV0jxFAiX+A2jAsr5tiIU/RQQBQZpj+xIPCZ4ZKX1B/8V+OV9jtazzxnY2WMA6BBcoYqMTwZVf2nwkb9Qvhn9a02SoLjjrIHsqKVfcFIK8yykXYFtTMTkIkUPMe7McaT7FS2mRS+zkcOK8SjS/JSpdsjDXxTpZozqRkPeRTuEXLT/dcV4KiwPqdM/q8qUlurr5m4R9IkJjtPQ7/4qDjEKY54JtP53inwsRY4zNK0KK4UYSklBPJ3GD7VSPlyBDUWR3v4yGZB0LyRZuLLQrpezNXqSE+caFkp6h0O2ZgE9Ca05BNOyiDoJJxd5V8tHGpPNnI8w3rwhTh/246mLR4rMJ5AZs3PRD/Ku5ZUL+apkMURzgTABc2ZPSktJ46bsunKovaEs23hZAsO0E2gRaUsFphAW6u91Xz4ZF5CERSur1TZDHOC3VtdcN1vfq/TNYG/Xgalyj+hZNTRvK7B0OMHx2yALXUVFZT/K18ORC5SyVO21CPYhmnHobh/XwbIX7vPf7zoAQN7EuSld38w+CYumZpPHiDdYDMd9rzUSabqc+pPsBlcYao9xsDKrhv2k+Gb8/biQCwTFIpr8iTMNDvdNG9YH2LsSMbSWDHl02hWS584EcGZq9CQPXCK8kwohHNrljZb2RTZ7ZNf7nRXXhO4lnXmnZ0QxL7BqQogMl9OGbbbXB1w/o644JGR1nHMPeo6NOPtkwsoIOHLAkjaK3dGyGID+eJUhXTsNxPiEAE4KRIDjH38fiShrzXXmnmICQJ6NESoiyDkKvfZKB3oiWjqkc7fMbVqOhKxRxwEXoPWsDDPTL1WbDc6+/ssva5fTgSaVhoPJ1HZWjyguLESORo4har5mOTj6wI1UKDYiICTdm35rUU25PlHbsG6Tl1bd6QxD9ff7OPu6L0TthHF2pNzEwwiL3MNV+iNSnbcnEPSB5v96aZhGTQFcBMqoDWGa2gNVFNGkLesNhl/S4JsJBaDY7EnAlgRkmXlIWEFFjV80pidg8GQw502Z+VSbIh/OcL6+hAxuX5iwjMjjqnZOSzcrDhNWdvyEpm05lppRqctHdpNcu4qu1mT9mf8SCRMdPownY3fu+USfAVuhH1vp0emtkPlTaHfoUiU0txPruPn0MjLM/mb5xEYaAsPBDJZGkGxq42QLzZhYQfYniudj55ZMiqgVCj2WXkSlDIiwShmD2WzvoL1g7XB3MwcDJIuzJreJtXE8K/KYK6sqppByJ0lMH8XVfUJNdH3fIXwSsP9i8SkK+Udwq4l1ayJlnjVvxAUI3Hny6RPuPHChJE46Do20++hOHaJogxG99R5VlqQkjpvp2n7Tc9N9761moSYDR1/XoHyvTVG86XlJOwFrvaE4sufYCG2BenqeEhSsO/Yr6ebBZR8S9IgH65ETPxZw1TDwV5yqB8xy3O60dJtIrMd9DbweEjGrkp3XEGQwIeUMPg5jYFgawge2EjyBEendbEqzlM6/02x5Z+sPJEF3p5vqbhqiWPntgTNSkRx38d9XaJ5U+2YmzGT5hjjcJs+LagnTXJSGVIsfoQihlyd2WQND+RjI/ka5dfuMZ78gQG/Lm2jpjk5cQB+jh/0WANkpSoVPhylcay15MTQn72/1T1M9dZ1kCPHtO8ZAAzRoFQxn89cPU1qIBUIdt0Cd2QkOJ447DEKX94Osva1SmhBw6VKnRfW1ecrqaXi5QRzIvwZW5vyxnEG/2wDMe+QcgqBhxZyqpQLwZW6f5zlVF2AVE74nBveynWNgqOPvhAJdm4WNaS5F+9ZuJxUlrIRJ0NG7WX8bnUO0gfNzmq8Ka8k0L07LlxfRHnwwknReuLB085ayta7f1oQ8PsGi+RsXKhlSYMCIEB2C+LmwiMdmUhIwQAFipwyLnn34EMT/4Gkog0n0zclROs6gx/6SgoBQwbViskof5Tq5vikZDU7GRMU/dPchL314sB++xNgMKNkbF7bZ78SvgQrD+vkGZ6wAI6j+ZrBXcWGDQI0u+YkpczPni0Gt125LCV5s/+/JVBo7JBeBO2+CYCkI2TK6kxE5o5wY7JR8M0g8/eZujN+BPtMJGSKhNf4TA1vnZV9HWL98UEVWMrgxaJQ8YLJTR5MYBrwzA6S2Or4yVC1QpOzgrl0WJ3v128guwoYKTH+cy39/AxBExHgqpNbvyYKoN5rctASD3M2CpzxLwlY41v+B6BAZjq4OMC+0EpSV+/WWEQGXAycbglzCvhThsb1JlJAkFa3UU4+bb7BYzfM042wFuqdEahMNcFMTEi1nqNQWrKrIb5tEI7bbxDNsuaKAFPhqaoX9P8jbtxP3AvgJ9NO8VkSIl7vl+NehyEbMm2CUb8V8ADUDPYVojJ3Kk2WesMImgNPTaK/PyEqfYPIwA6Ul7Iovk9suqiWtyfpAF3xbV8PQ/+Jtr4KOQzETnhvpmzQhQOnSDW9aMTvkR9MCLffX5/T2oS2SoEHXtvrsLGiwzYHWjH4+ixXnPZdj716BYCql6H19OhChv3nHorPJTNR7F8FYnA2r6Wzdd1xBFCEwiIvpQ8m+DfnLvp2IDIMzR4GB7YE/s55arNrxftEW+sR+UnD9ESwnFRL649EXixpW9FDk5zcbQ0DxO4TITICESnkHMux/NWqSzmgi0Ea1zE7dQU5n+FaQG1EFztN0MKBJ+G8no5g9nSB1vsFA1/4LSSFlAqLSPNeAQ9+v3M+oxiSJluM06Fp/UA9bSnStWc2PpxO0VFRdxHRlkN/UPOYqHKA/E55EhKf3de4Ub1+PBDIAiCK1FRwFtl5aULfH/p4+lgUBjEFh1RIzLYnN47MLXud0IgGXkE9DF1a/khyuavKj8uImEbZq8jwH0U7pF1MO2Isbzovu8zMOaqgPJe/umw5D61HLYxiIHY/ioiweHqpSip0tgJhPw1yJRp6qn9pWcY6Jve1f5E3dMDr7rT2qMzVEeTcAEo1VRSWzj0S7hOn9UWviFgvzoS3VPiBnQjOhov+HG8zzw+MbzejbbGUsib5iwQbMJVEX8XsJQpNzoT9js3lItbq9TYuSzxNwXLrVNYbu6hAvUAd4HJbZ2jnmrH9n8fVbkQeEr8iNmaXx0GPZOS1HvjQrcxXdqwNG0LsOyfAewfdtdsWGOLx1zlvBBIJp7uCgt0FBsUk/u6JPwCu3wAjC7ml+MYpTqK6wam6TkA9ldwMKcXRNYLyFcQclEw+kEDTa7+XFkqDPsw0nY4ozCkvjfDhLZVrUMOpsr0GknwSz/43qjUUtvSPapS6sSZL6p661BzAuR+9mkVpiLyKoypWrRefsKLe7gZcUPdUUwt+3XmKcRr9p2LbCVIkxqB/7WiDVlC+Qx9p2lIK46IFFGz6a0pepgigd9PTi0PgUILIDPlYetDBD6B/TfRnKGmVsdVsRCUbGh9Ps74PAaMocEBAdF5mfCy72t9Irm37YLDxSKIGq/Izy8xx5hsMLJ1TZQEFs4A4LPkaFfAcKE0XiyivHjeU6yUCe9ldxNhex07j5Ez/FCCBYShmawFjvotFf9Lw7LN11V7zrr9mvpVz3UC/tdkhVKSErmqaQtvWLR+U4g4NPYDDNIl1bXpr/ie68ocn6evIrkwE1x7UausjtPNCEGrRX74zYmgKblvTXLPfcdDefILVO1fqSRwYaFMK3VTXG+NpQbr/p3tGZXoixb1UhbzbWMmTDk5f4DKQziojvz2nW3U6WIlqpvQDKjYgQdj4MtTlTQOE3DBWDM4oiLTDmIR+A4JqCT3y7vIP7PfCRFZSpVYVLNu5WJbCwW8u4xlDWN5KJEPv2ARvWGDpZQnLAKsG0o9zRh3VeY0eHDdg+PpdIMmK3FwobVHDYmV32fcUUOyBKXG94O9jC9BNuLDWcQ1Xdo6PrFDfzKGvNnGb4iaAyKXxyJZo1O/iIm/rQrCD7n8KqzcrYAgwwYLbToUGo9+vpZdace51bC/fgGL7n8u/oNvxLxqqRGjZXKVEMhDQ0CaWVeQTL51cI3yxGuIdmI8tXOEFhBpHs8FObB6y34HyBYWu1X4gMqMEloRyfxzAWaFPlVZj4pCBtaq/sZJMgYMZQRvm7NG/+hl35s3Bo+6DnBrc1EwZhIU/JiL4gC0qc6Cml/CfzDUnwGTMgsC8Fpa8p++P+AcWZQybcvxHdUp9ZQ87lbNIYin8+EGfhMlcW1tSn3msknPeX4F9mPjzsrkiglgTpPYGg6ZzL5EoKT/NdwrOpqVG5ENaDwnEtvDV5SIA1B+o1RAccGyweObloKHOdevfCpVKyU/ErQtrwodFkZMGwUH1QosJruhUf+lhEARkfMFnw4/Gf5iwALFjhPj9bvNkTwFWmkD+DlLww3bQ6YM2yzRnOaA0RtVbnQ65KTb7RQp6HZHNRgX7369inxqiSbhmnM6rjeB2nwBpF9AwzFPXZRiwEmLJ7FI1e5QKDUAvLOU6nDgbi3+Y0jc5W5OCdW7Jl7avo/D1UzfkLHs6KRg7RknaRmxxHMoSk0Cf8bBjXLeXEmtqISveNm+KgEdVgx1yCnZWgiKtAU1FCvJ+NOaC8+oQypQwySws2qrVrcy/BADlPTw5phW4Cq3ViHuub+eVyfK3EKL1/OXDCJj4BYuOXncrMg9C2P7MzOnT2JC1+7+9CI7BJxZXkkCVvwMyo2GrAjDoSJi7fwnRINiiDh0QdzAnEToZagyKk7wWbCRQgMI63cdQ0RBryb0WOlqWmB0viABP0JFWM78pq5HgD1WJrobEYWYtNUUJZrfWxl4TwRGZlrLAmbnqfP6/95dcFWLahyaG/GIShO1fJqxvJaykBZYszHkBaC6ul+2Gsak3pyWmJoLBNiDKDJGSQzlcLvSmB8yfv/nrgrzMYt9hxdXY8MV2gFPhUtyVoCIxSXV9+E1SnsWUC6IAxkEz7WGi/zkD6MbHKruET3d4X/dsOwuvABlPhBZJ2NK2thZz3xUSIV4Y3WWUdEIST2nyRnAK7xSz+qSir5Q/IZvXBggQGVRsj34uXmf6q3iXRyD3/n1EIfKGFVggP7rjTaVHKS72t3NW7k/mNlk9323V7nNP/Bhcthicb2fYHPW0L9Rf6k77yWP7igB3OA/zvIp+kX/GhjbcerdBXyitIu0mmicBIl6nLE5NJjWlJwt3pYZIuaugd9+Q9nvtfpwJ6k+czAI5SkWV2WyjgxobmKFsOIiw9P8BTXMh7B4t5OoFphEU1BHdKdTJXfpGTPN6tIir9zn5wG93ESebI0Mg6dY7GBzGsyLNo4xd2WRqaFMmzhrRasNqeOtr/jzbGdPijyeZ7a3R7xhXZhLQM5+gv+fusuERa6yx63FFGRQ0RWjvL9elH45MMmiBTSR3fGm7Y12ZMj134CgO4GbKAcO75aS50qEFM/cGjjII8zKx0LJzYr/kLfHoF6UGQbnKHh5mcIK/4pqmNnE0QX9CG+xPlMl4jWRt/pd7J6PGpO+3rMfe3OAw56CuqZPCwrZ/d9fljjuoHzgMwAkG9ZwOSscqkGWFbvk2bpxQk9SXxuL/xjVmyECedkoINmbtOKo1gvxK0w0LYAc2inX3kumVpDgycPQ4Wk4tKDSaxNY0R9nSSA53yOilQgPG2qbLHgdnC0csrZRazeZrEXcYnOr7NYGKAeZH5HJharqY2DCCu++PnVJtO7qkcco3naNqdzySiy9qbWuYhuER1fNodYpvr5THldDwlPKIYL8U5+L8J7KbVudDLs6QysJqgDlLbHqj0qXoaEmWQQ+93YaohpU9059cCieU6DNBprTHqIAKQPwqzTdfBU1zQIPiIrPIBFSqMSh8v2sl3qF6DWHLvVuk13FoVI6p1I9e0uUF5nCxK5ZVFPauavRWp6UPjo3+BLboXNbSg2PYkBw4EAsc8afSBtPIp+NQhAqlR5h9Tewool6WHyGuj55Pye8uOBucSbAoCWDYpk+/3lom+zXLVoccmudine/Khr4jq/FKkG1XA0nrMiIBdcQDMHRAR9zA1kegGPt8m85Uaxg0oUpDZVXAuDs/SndE3QLnr01PqGlTmf8n4+7Lr0wC+yMgMMRCyVhVoSk/ihsALsaBs5V8OAQMDZxg2BBwwqpRVPdFO1j4A5+raHykZiDDzh7UqFpxmZXGYaB5f0qRi0nHUkLo2B0D59Qcw88U5NYyHB4aIBero2xqCieLQ5943KetBXaG0ZRXAcoZ8aCPz03JEYqQkK9S4cbxXarxWDItCBjdatboMWgBbm+VWC77B6h7rv+83uzJPdSLXWOaGarXTRE6+lx75rzfU/Onp+Dqe/W+gap72zrihRGE22gM4Owqyy4wyOwso6F3p96LFQ8wKCynR3d9fDb2hoaZUPsZlcS6onYAxGP9JYNLekupQumCAYgGyTbTLqGaS7WeqUJ4VYmZ+3Ci1qmIZwOyEGDW8sUXedbeQZnKYoV1Vp2zIVTaA8x/LOLrlCYOn042KJY5khMFKqlOKFRkj9v1OjVWjf22YEL3yuvW19UFpbymD+w2hFuC2ntezppkis4kUwaVdzobcq5LcakQw9DMskRUbD1Gt9olnMnFpeJeCAyQhNqjPFYQ2bYh3LHspg5RrPkNxeNoNmZpPAQF4rGrCG2TzYWcUd2nE2CZeBTMg4CVU8HtWhe7Ezohx+gbv334swIyi2aG8Cqc0xf4yAGN1FjBISt+kPz8vzjyN17LD5EJEqonuXMXA1nLVLShu632F1oSRQvOU/f3iNRKOPq4ngTm83HPSYT4n8ZtcmJvy4P6B+H9a4IOmM/md+B1rfLLb5gEObxPnA5jTlMeXBG078qWYvsEDailPJx0BkVkt+xHfLff6IHCXH9KUJxhyJiKiTwVWtRmGvn2BPBbKCadJDcUwjazgz5wolo6jyze5ZtYDnNIbP+qJsMaF/MXGqu8D0XQo4c4OSmleukXJaISdFSozjjVvIJxF6SeAsG2lRCD5WTQ7TVuUp8jB+WoAFbzFW3ssEn7O/LXlRnhMjLTaYMxDUWW69OUlzlGuXo8v+D2WFe0Vzye0R9ZpuQ3paQtK+/bnMN+8isKs/76y1Lq1dfAktDrbP+mUvwOvhucW/UBasPOc3qYv1YfqHaxeDKDDBY3A8tAu/ew159kHnxO8Ej9vzcHYUL1piId+GHp9RkR5dI4rrFXoh/eNMW16cAlItQl63ZIGGzeTwFLp9H8fomL3eU89qWsIJ1IJ5ZF6bB/yt4qxWZgznmqeb3c1sJjMUY8YKGuVe4AZFFsL84xBFWB9oiXNYiOffWdk7zjZEl2akZJ8xJiygCGpQH505/ivnkkFXOCwVBxklbm/T1+3hhdbc3TI4Kfd0bit/wY2lRS+anfq0aZ4x4111z1cCHyqBFd9Y2C9pq5eTghvezJhCDXmhkkKC/XVZuX2EbT1F7iv+yfsb3MG183gntMsS2AZjVjWM36ybs3ZPrToX77SfbEzHB/V9z3UZeBXy+cdiX3uJw1thf0KdTffNKuFx2VJTS8eR9ixMqmEJEtHPgB0iE7tmkMyOmAbOu2tWqyOpQRDqnYiR/lNhejxdMv1wu7n2buW5YeYrzJSOdtBira/3SYfWi8Jj991a0n/qN3q02BTUiLQvqZrAa6uo1EORU/JcfxjiN9QPsTYsEsNQ+TiskOaOoY6G9xZj7VyQ+qsONOY8qPjDP0SiOv7r+j2gsUOH07Kz3rNqJor1pqUVUCyW9fBWDmq73/gUZRvrYdpFFodihJ7ZiP5aasMWiPOJQWtU7kxiXW4tqf9+7XI80Il+II/5m58FdOLsB4javNfjzaC43DlxW1KK2FvwfKwkAn0ASBbnCxzCFBEQiMsmILq/NFP4sbU7E9Mn6bmsq39mfdvYHKnLR6UJ/+IxfWhBu0wT3VFSFEBfZ/0H694+x8L91CMP04lA65bnJV6w3LThIYliZKK+LJvpid5dcOTVhs9RqqHXNg8whWybV2/pBYBOYwIInYhsx9p57RKZLf2p8xuvoKcRp7rseB729L+TAtQ1XtnLJSBKwyd+c/GyURjQUxftcnQnf0rzQPPMCqt/KkgjdQuD7fPjsj4k6hYJ+8ywSWy3VgWEFagjWFnRSPYdBOjKtKBX0iVeLfQhrCV3mnABAyT2/I7CzdGWdubrmDelQFyRSeCueMR7E3YQOI+Ez6v1oQJCalPRDoELPH1xdDN//swwAl62NpqjoPX1SmJtEjm4WCOX/3lfqAqP5baQPDQE3un9lmBide/W8F6x1fygszgKPXNpL1STxs4ofwFYS6ptLgX79JCN603HPTrqQzlcjRpTMd8qPRGH2Bl1RBy2Yhy4kfTAyiWi4cB+VnRgiJbo4CllrWOxfM70UIQjwuGscGdPMp0eeRlrO2zU4NbNfMvopY6CmKlw9YcU66VtU7XnZH1bbmhewjoqR0QX+DNETGkZiFmJtEHN3kjAIx0BTv0Czoh2EmRJiRN+pGsFdSzqygnAmHo5Fo/Lqpeg/r+0crOzBN257ITmepGFjqVVFxdHh7bc2/u5oHR9HDAEDrokaKHsQCKEIqtM3WUvbXfhKKInGswEm8pAhyZ247I9GHBe3rb12FB0tV/UZlwltkjniK1+9v7EWGnKT6fflfg+hWjng+MJhbyggTqWlsvGlL54B/mleo7C36hqKHjWt43eD6PkXEnij00m9YshcZkyU98b6A4zqtM0FeWqiAgsdbS5OigW6M1WZJClBTiHHtcSjTHOuyXfzyB8yd0X0bkOe+aZllg5UK48KfmMLqakKeHGO10OSCe//uXNg/byfk0O26ga/wt7VjO/j86ZI9Rc0dIdzvbp5VJMaI7w/qO7Xhj6qwe58t6YyMwVkQE4Geex0PDEx/6C/ULax+cSx63fxRNPWe6ulrNxnIXcAGzEzs5YPZVyzuPvg9ypjXk4c5zFhmJE4+Z465BO39T+17NRXBMUQpjajqOH0zxKS5xJ4pQp6dhDnS09IFmJP9SssM/F+eXD0VMDFzXjz0k3N7O+e2hc6aByLoaUjS/OTVODzJJlXCPbt+BA+kYHCarGLyDZ5dJEylqx9yPrAu4y4+clLsbeDIEmCovjXYzQw1MPOvPcNiBpk1uNeo8N63KmVwPnf4xy1/HagkZq9CCJNoFHOIaESHMt3Sp8R+ZDRMyFj4XmajLSY+JwU3jp65Q8gZ+CxzzTGjO/LspnjoVAkCBT8F+CYtIrFHLvzwzQaSRcdC0fTre5AGU7q0abV8cQKSSwlSxG7WBYwm0b8ylUE5hlu8CECt7rN+HLTA7//N4GLXLmgWQRZddl1qQ1+x8NfolvTZR7aLB+J+oGDqUP+0tHaX/VQfuXIyrSmDQaDk/1lMrAeF4W1KaH/E6EtWOMtp/ni+ETCW7Hj4BQDPRScKfD4EmgB8HBQ9CeOQaxjt25qoTWVh02FqE7q9WoEHt9BrljbZZ69103s7KO8bVeADldsDJCpBs8fWEzE3NsSFdUdk4gCz3Sr25TxIYkzBCKul6l8vzFlPXhvU3G3pK9foj7W/FKMTToAJbIKBcl5aw/7wz4mqecvki699Vv4jPPZ/5zt5B+vZkvPeDx0I12MOk6YnhS5OElQ+Oq9I71+lPvdxG2XvqjkvUDh3caGrirJqukOeCvezevxt/VjFtzpr3ACMnFQJvWsOYqH4ahs8iAruWafRJvXfKvtI4Q7JS5IBScHdp4Wm1WYjEt6aSKJNH3aGQ565J23UiprkWBcS1yMqTt/aP8dY6IkFpnHVaF1gBRwfM8znIIewZ53aRyYvYJ3qCRCG34gzsRRH6gXGq3APL66X1XXDdFH4hZDwTPm+JAWJMhueJ6IXipCxJ5pKPQwijk4sCnWnuu3VarJRdSsyF5kU1eIqUErzZ1Vqu5Nb8iu5ASauFHcE0nta4DJ2hdK4sRLSsWrmayX4qeD66dwvimvZCsC4yFO/iduaQjENm6qswt59rrqDj6Y5T8KCIAKlo0AF8tLQT+s6whnF3nskjxZVWzhLDAQnUz1MrxodyeceOdp95dTPGof9nlWwAjP3QMJfXHviIaWDgyCIf06RM7cguxCk/mz9fQW66o7timlQPWdnCLEpjuO4LRqe8D830moYs0MUDAIfIXEkcAjTNhTpZC2qjX1i5zMelk/kv+V6pOn23wHwSt5Q0kt5k89I+2j8anTtt3HUMy+yD9giS49wFJ4fcxV5K0CgwLMOVVAdrcFBoxRl9xHb6IM6iyyJ+1nyFkfu2b07PM0owA1DB59EfglyRqzd/5YhnBf5dIJEmORlICsLvAl9ioY2Ed+JKWLIDvmu85UufS0FN+A8IFw0qHkLncM2VYH+9FhG4AQJaIKG5o4Z6UXVMi/0tIxDWlT0dnShQKbwtzTccsmPG598Ecs0V9RXEei11LUnF4ZdMikyAGMkg6Kj79BAasV/lamOjM4pU7HDbhrRehcxthC3FJvDp/hqPCWl/6aNCr3oiJQIJAHzVjNejoKp3VyyxKlOK+BDKR7mFzvWiUSHRFzBaHn6pUEaAzlJn6EgsAWD8Fhze0zfP4y99sCIPxFQJ7QZZiBslsmJvfi4PROR4zYFCGZ0gUHJh+Nd/VjVVd6Vwm0CTpWanxwHpvXP/A2jFusNMGHtaUNhDR7ieYQPKaYsWzexuTyKLAjDZayRYnW3YulBXIekIg6QCxI1vid1BGQknkzzFltiYlhYYh47hHI7Vt2mbfEKTy6aPdWIBKdLURJeXrH0mYkaAIjCcRdk9Zf/b2Qt7Pr86df779aG4uwPH8hgYI/uIrtngxc9TvKB38KYSdt8L4djthh3sw0htPh1c11f+E85tNIzt74GP85M+SALB8kOfrabFqlFuvALCxE260Q5abVcugKmMV9Rtd5wYQtpD5VdIdouVUWP2R44Mg/gV/HK+T81v70Ig5b911/qSGyLJDnYPiK1WJaot9rPoqbAcaXRPB5tdLmvKpGiJjdxVHXc7nubJ2kE/gpGwjR2Rsu5O3LY1y2oa4pzF4ZLNOu5YQIywPHg9mHPR5mTDgn+g9GdofiR0EfzC9g9rtPtTR0F6y2z1toIY39a2HbVU4oFH78H3G2f0bNEyTA4p6M9zqBhS2fzNhia7sra6XTeIAbqBOsWnP2G/46RlXwwtLDV/5EzTDMqaIzoQy0dCVHhX3sPYEbQRmdW2NZRzA9TwWxlSXGmLIFUaC8qbxEWkzHGqfqQQWjcwnTDZKa2bndJQOhBfw6uVsZR8FJrFDooPSMwCZke8Gyl1vp35EAWdV0c/ecF2YaDLfqFhwZftLDtt7xqGnl0ZDj7PJYER54pH/GTp5zVfE/Bzt6IUaLtT0Br7Z40SHGY5slyLtnpnRvcxmeaxXEEg3U9qZSAmsQK3bvm9zSBMtZ+zBylPLfloGSIrNDHPj3GaYQf71EQu3GuUkmedN7KyE1YKUkuQ8R1M6E/vl5oPwfBMOG2nLPVTTB4ldkC+zGR5KuhcDWUuJhEsSutRewjk4qzzT5iWuH4DzkfcZRovMXoWpSx7pHTe3bq9NfCEZe17wSDkYCW3oOBonY7HXhFKokwW+wbmkdBUohVvg2WFQIOcB6oxM4lc0QBrF4nfjUqM2ZyeTTykW5fli3uXUAu3SKOS1liAlXO+1v8uPaqvjDLjeye9GAyd58zqQNyzP0Ws07aCH0ACeJdxoJSVx+m1C0yKeT3D6PM0yZkOLlPAln0uJrWCx/PIsU08DpraUxiRmYq3r0AACucbEgPjFNzyYIPm5MqLDhD1ojy+w309wqAn62uiW0PdyapcZZWUdGrqb8b253WUdaeQVclcyAdMGUM970po4NM/UbkTB7DjCYStMti/YOu5jeNEgtMMrBjp7CxZzn993kbqDVt7ZRugf1m6Sjz8guPbwJM4WTWSnC7MfSSab6GQE6Z10BseQNV7Wuc1uT02OrfNLP7kczsjV7Cka51BVka6vC3JqoOhbDfawzEG3xUO1S6998dS+pdZ425KuNNaueQWF7MgnqdUbMahC4HT7C8QD5LRm8QWkLvBYhn+flbnRGp32vZZhUX6AK0aaiOdbkbK8Ji5Ru1oM7janq8FfqrcMyCnAwrquqhN5tUjDix4U3zt8Ld1PrBosCdIS5vjw6iOYUkElvFJlPm1XQR1P+gybAYqB5h2JV+y00d5174HRg2EkEoAg3winCVJOTsBW7y21dVf12NTBueYr5uw+dt6I+m3HaLIwEg4vML0Phun+FDx6wBBxPuei6oAwCArgfFmXfX6NT964dx315l5rh5bS8NY2VumSD7YOa2VFN4I5cRlBSOsKqDcl46CzMKRynrjNT7Jf0rz1kHlJk9iF/5FXbQziA5q4kDcAqBxvhU6a+vI/0u5k5hp+dtoibCuFZL92fgU0i/yL7WNNc8sywI4Me9ZYwkv2JaW9EBZAGIBO1XDD9jHeyjBGdd0EU/gS/WPTVaSTFtOWrjvt9ZGlRUu6TkXaCTx9gnO/4iAYv7t9qwNA7tzJV2WuVfKHCWz9yIfT5+tvKQF6QxVJBjYV7yDY7tf9XUdWYW/yiEVdrZxJYyp4vLmfuee2GDAl/7n7VMwoK3Od3+g5hjJQQt3qLZ6e6FQfZrSXrD9PdeYuyZm7VttszuMFyhwNbxE6AggfdJjVej61F2TwmcUbtRvKdOnCeTAim7VjUfrMy1pHibrEzgBxV+1jTkjgdxtE1HzVau5j+oejQHmBt1YQ8i8QVk1LRmzFI34I/iqjpEfAvkguZYohPOvcNlDCiECU6ffGiah1qQbJF6xWlqttvvybNWSxomPF6yHX5wVxMNGcWL/lkC8SzOvC6QktlKbfu2YJ70SS22Nm7OIMoYemThl2T3aAHR1zM1RjOBNa11g4lmq07ppdHqjMqihPUZaJW6ccRzOZ/q5gMU6mSXV/H9Si1zctCPNZ+Hcf6wEnCmW4AHCEZbWnC/1K+Q8BCVU9Dez7N0kRlFrQqZ7bfw0c+VI8AIgu69C/iq6IElfaQLxuffNBjVHQIf0z/u9LA7Z7XAIa56PbER0xI7tmSa3UTq5YZ8gTFQYhoxejn5QDTGy/gEwlBS/0oGildl0NprZ/COrBJKmTkz2G3yAJvIJpW4SsmvC6UPSc6zTOYaCr4jb3kh3+6UIGJUkysXNttALd7NlHcaV+P8ld8E9J0ksQXul1qw0yAKw2HoVmszsbOo17DfRf5Ul47tUPLOezOGLdm3r6RuHiic6OLPkw5JnKWxEhhkgTMO+fTLwaiidLrTcdo8luQQdLwtjB4H8WUv+jG1PB+kVX9z8kucPksLi/3YxaJu5EPB8lB3yzDAKBW2EzEURY4TtcLVoikHNQVRo1W2ueKtouRU1tl5fhBhhHxdGAHzzsnahzET50cyWuF4fe1ZnkUoI6EszWzO5VUYKSbIzJfaEbwCNSYshoaNRVA3WlicYUU8VefDZTVb2sVshqtk8gr13EVRwl7v/SfFF/WyI5ZD3roVkFOijbIkRXjuAd3OM0ZmLRoNfFc4xuyEtATVEOc4ZObuLcURn+bAAAsJ1Pl0sA1ZO6YS0ZaUUQtCqobjIqxAvN3xpPHbV0sHifSJnnH5LtnsUN2E0g+PAWGJxwVyxkrIc0MTxHcFUJV3ur78NqOaO4mpvtx5WDYJegdebEX3iBkrahtc+ojQRjIU9rvQ+xQOJZoiitGW0vHIC3/aKvBXyI6b3beZKzBhl9nRtkbC/V3AIu4fse23LcjsIwdA7+CHz979uGQYeu5zh/OH1/50zz2Nc31UCFOtRg3kJPqiz9N/AsrU/derfJgvcGGHdXKN5xAxNWVpoU20RPuxMryU6Yrvwu0PICdKpXWmCQ1OyqzPQN2E5IUh+CqujqSfFy8vbt8ZMqkovMvCklCgkhBjONISTUhnvHVPQ192aCCI/m1AZ+N7i1M3H3wX6mUnf8zrvJTBCRrvfJ5vjcBflFDngEG004y++mOWs/x8VbjCN1sWBx95EXO5VR3ie8eF93w09Gny/ka47Gqrw9PA66ocEbm+VmVXg8IUhBWlnTH96CJmoOtOPmUNvsTHu/eOnehAwdqGt9uC+50Amawt+Jk4654HENA7lNBnhZ6S5wUmjDiHTQ1EKHdnccEdfdPiwMoo9cvReLvZxuncvH8pkcQacyUNiUHPe6bOeLgOgAB3h5xHHAgHAiPge55CZb1fUkWrebnLoc+jJwMBub1KKD+MmMzlf3h2/Oo+WCBce279x0qAFhJrmynXUnabLo/iZ7+7BvLVOael++GROXzQUNCUwWNIrXUlLzkvGyQEBfqDwZWyau7xe6RuR3dehibwXaYTvL9bhPud1af25xdpCu+gBTNtcIgwFxdFdV+8IUTDBZFhc2DjyW5Rk1hrxyxeiicdjubuaaFKeZYxI0sCXoe5COoR74onj+uhk6AnV43B9VDmiSjXs1CsTQR8HgSmn2L1vcAgD1PO93YxMfJMb9wiKXtW2nA7DA0/ZIPZNznZcDC1k6eRHb7hTKybZCBK/sTnt9RuY2t4XcHLRGJg7SeOZYDzqLKWZu7t/zf1TXGANLcB0yhZKzRigja8ARQ+gXP6pChqGRf+OYdFmSN0MS/r7rNTIP8uaYCujdVCjBO4wczHSYmMfvKahN6UXSCl2x2c1jjt8aC3H+tQnpOhTMzAPwvBvAnuh3n53KYTCOgb2FltqwVYAEV17GVht2NgvDdjEcQz852DW7I543I2xSblfV7KOWxhU///T3iRToB7Ekr/xhhyhZizYUyzu2P8dsxpV6Qrw7JW1AYN8oHd++PBTOh1Ypmqc1ck9UwtRDFPUopluhWCTwDdlmYntga0nDbZ9ClKD1VO++64teKpmUE89kxzCzciiPBXraOWH41YISh8aYq2Yelh6Rvce5ljWJMqyTvLYUzyvRNmdwsV4RUnAsQmQOGQepmIpgmeVvFQnnQV6nlMeMimBzG9OhrF6I3YBNk3TAtri6UwoyoXrJBCjabnhJVoBxrel7ZHFGgCU4DdJOO1ceT/JjN2nPjtkAXARDUqDq58oL52GtOSnuX1d+GTpeg8vXQ/Q+POfxGCnp1nA4ONVCaxTMbbLwthmJldhrKsXtWdGaC6hzNW97xOOOS6ZBM785/cr0eOQmbtqD+1q48rY/GebhvnQdqKDJVUe3GSaGL+ax3gqP7LWV8k6GOv80Ve+n2d5jF3mD4oY0ADicXgfhs5QCe4ijF6EetCO5/WIplDDZQ+bc8FsAtO7VRryDm/NcO4PyhInzfDNb3pirWNdr1QpHnTMXOrVgbCoEsLDxrl2ZtC0hzENoMJUdJwZsbU3PNdo6UE2tiVmfeeSk96Xj0Gyz9fmeAvFdmdkidOHpiJSHLxxUmXuo4vz2yKn37pUNYWpJhLj3bw9WIIYNrLr94A284Vp1J1rByvTKN7nwgQbBZDLm1zgTQ2ZWG7UTh7y/b+N3j4dpATAK+/d/KLcmRBl0R9TWx/+GwgzJRJxav4FhKlT1OYxVXTuCiHlRxE1kuLZZ909Oh/1z87u7y/ZnZM2XZbrCTScTwzBwq/symzCoZTrBv9JhJd4vkAmd1CSsHNriT01jc1GfpdB6+Fl06mUQxNal1QygcCJ/wRyx+dKk6C9UGRroKvhfJJoio7cn625w4XoyHx3Kj6iz7oU4TQ6s30vYG08KSTlPzJ7G+zfJ1GJsTx1gqJLLr0dCC57SJnm2YUhrCPoym2Om6Jgm948PTTmCngGpON7NbA0rOo0Nkgdb/ss5ssfumbkGU/cpVa58rO8S7hcCFfoAF7hocRScWbHKRbO5ZOZO1vQg4tclau9vjcxQvJgUVoIndvYsAgsCvsxqxwu6J2dZ27JTK6Q8aBdyz7A6YLq9a16MquuSclHiFsT05jDDFNecx9PSJQc7CW87r6pSDr/kPghEBswu+UEvm0f57PbxpBxL3KbtS14HNx7h5fghCu6laFIRN+yBQCQyH8rt7ojgvkQTk03PHW06XdolCGHdfwpssRoxGSbcojyb+40A7jk8ltpSfWP7pmUa4t+y1OiYYOIfVeEAD7/ZlOoYdT45U6a0HeyV2Y+1zr4M6oFbPyQGSfxV0tas7DLR3fD7+gtsxChss6y4K4yURvsvkGb6JbYCfWPmpMn6qT9I+/sMRKV2RllKYCCNafqr69t4v8x3QAkqPqyA2ttqtORPIg8G0XVttml+ywBs6Z+mMVmGtRbQhqprdkPrYPxCcTqm58ZxHPgzFDxXzF5yqncP2az4RSdQAJuII6+H2BMvFGVChrkSd1l9ZQ2yQ9uZ+uw+30f2MTVqR+2O/dfwjc2IKajasWBOMw3yiM5e0WINRbJyZhQ1YQ3OhCKIhed+oMeBFOyi7lISTI233SJPlCSFyC/MuiyKr2klHVMCgGA81SL8oVvyvVORNYeM9Dzb8g/nDBsHz7NAKYiAiAI8dcC3tDH2Ti5+I2PHCE8KYhilBiTWhYtgoD8yXilBh+Dgk07URj3t0uETaTEd4/tNG1PyuhoMXQ5kjEioVl9BFO/QsYyT6SLCb6uOdd5wG4TrdZEpf6wKnhvJYdDpjczCct6U/mM8RRQU9G7PJbNJ90EzScTxSA4Kvwf2/fRi15hEMsUx+dtLm8lnzERhvTv/vA/urergcEzdIQI1qBk2vuAMtCJxeK0AdAvZOqmqOt48vb95g81Tl682daY64ITLNPQyXGgaW6gct/ZgXXsAe3E352VBFOIefPHvH3bz/KKQKthkp8mBLqlt5sCRBkRA6J2Ndb6N6Yo3xSZ8z855BApARIm4reZAnrTbl+uSKUqJo6mp2W68GJQ/P5uKBSLj8uAwkNpiZOJguVkJ3u84QkkVyfuOkIT2sUrGvAbrDyttYzoOg9ztL4J9sOk/SyLZLicrZeUWaL7u0I3dy7jJ0eRp9RhJcRqKUJEAS6K4tQzUQlZncFqXK24IHTApCIxwVZsjADY3tboTerx0zTh4F+GtRYDoYz/F72V/rr52OJTmPSzdd87VzZjLi7WXfkWQRfRBNMxrgPwx0D5YMv7coyX5L839NVzMb7+jcLI2ZgFhf3gYyvasVYL9Hgsche6DhHx3IYg88vAezhaAhtU1xm32diD4JvjtC5BynTTGwp5R+H/wx4s2eUw/1WIekTH7gD0bm2najY1hvLvIAMDbjqtMRpD2p2KNr6B+hRF9ZfW3NHcWjkuPazdvKBU1WxA+lpQsUXmNbEpcI7uqkZFwzzSy38VnD8PS36le5LCzgHuTnlGC5T6zszQjebS7yyGYlWqMW8zTvMVGVKzLJR3iym/Y1wYevlUBXnOa32iTf/fjPv8AjQRyCgKRT4KlOMhufUXuUsymA2Px9QUQ/beKqXZzXvDhTJ3jtT0RSCpnL0jTsTjTQDqnW9AuRIVr7CuYVjKk1Q1Odd6lGTVQSS767CHczR6UE64al3y2tqGzZAtz0530LxR4X5RqIy68mC/FIUfHkuCULXu+dRo3f8Jc/y6K4XMm03kTV10IQLuxfjNgZP/IZiqOagtUikxRZzfTkD1+QYmbit+hMz6mwQhrrRUbDIDZYwKouRq7jaTxPpNDumpXq1j1pXcqlayu9Pps7w7qbyhljwUvBXuCwyLmzCakQmXs5K8pIaSAeNM0rpY/DdP/LPuJIhwJ5pCwp7J225Di1xfAAzfr8aQkMJFPwU1+XjNdO11MUdgEK1a08gMaH5dYuMktfJgB4cPQGmaz3t5eFIDuI7DDoxMckgvqzF3iju1AivhC6e0pZECN48qMXAPGEeewn7urtkf8Ahz4g9AYD/0ChHCVttm6awo/yjUmijsSkYtDGNJ/Q1CJbgq3L0bsGMawWd9O0ya0uJTQVvOmi+7j4qQ8hLxJruUnso6VdCSL0WQv2E2CLVjTGveXMDO3tJRgr8u1mIwi2cAdDLQZkhmfmHWQlid4F5GDj/o8w/SBGOE0kG79G605mLCBAPbtiAxEtq24NnB3Q6lf4miY0lH4Gf4ZeSOYBZjAc6BkUE8vBJtOWDq4He2wFNsZ38CJM+aBHOBZ5KaMKRQezJOkxolUr4a+7lZKOqoavRIjxW6CE3K58W5ThhaFh34riNZG1XzPi41xPav0xqW8uQxkIhqFkKRzLcccLQZteSqspCGvDi9v6/6XR6KnophHJqvMikOKQRZ65tGJRkK/yL8H6yEP9mpR4QCcYrQ89XT9jNZ2AEZ1l5OX49MDMsGKclh8ftszuUj9aK+x5jOBSys6+kR64FaeXA5U1j+Md2EOYYz25S+SWBZVH0S9QFJXWtYlqnYWoSZBlOi3DnT2vUID+9A5So0dmsfFRx3bF6johUnpUg5VLzTFn0ALiIhM3tnCuL3ly6ifoJkoTCLFbGI0zd+EMrwyqnlzm0sYt58EowpZcQBHzHgXwE1cI2LVt/u2IOQS1eitDAa57tAG40AnaicfKkvxC7FNyi8jQNRu7L0p04myk6CXxYKtBI4cQpIjGMjS+JYEB7DMkPSVv8rOdHplJPg5SMhFuAlO7qRMJQfWlr7YKdxvg1BLkf98QENqOV6f/zhhtZWdyWfPb3DJz83Iz49Wwaqsqe9TJMO1CvDa1p/Uf4ByeOzdPg0QEWLmgP9g/VW95iH2vPIAbWK8MU8PNtoYP6n49V7f1r4iWR1JFOVp4YYfXbqsGjxt6jet+2wl2fkjC5QLxLQFeKh7HQHH7Kt0Jawy595+Q1WfBD+60f5sI0I/gXaAl0M/RPh4azmUsFWHdgetBewXnPN++p7boDFDrv17/c7LQndg8SGQl0GSar5ivUw1yQJC48BxTn2Vjf9VrUfITpNq4FHyR1mt+hn25XWcOfKRbQdI+az7KSCTip0rlBeN9GaAzqwZmyvpvamPzksnSgH4tecZzmhR2bj9Ris0aJwqNBvGojQFCSwI2WInoMeTbzVeTePPhQ0G8rz/5aF9Fc1xtvMO8g5cDtClH5zHSJAI2cK9YUM438bEw6l6uqRT5/OTsgAh1rfNDL2EyCIm3Ro6duNgosP9Vi/Ot+amMtwgl3kYNWwkO/KZDgWWBCN4SsOShvdFV2qEDOW1NJHkrngycxhaXsicNQXlcTv5T76vZM+5d3FDJ5dgGfge4EwXL4HEnFguqefCtWI+uMROR7Us+CRkSk7FWxtHATo+MG8S/GQT7W8Vm/D3+3pLRqg4whYBtFEhIseJktr+UG3kJcAV9IUN56ElbRgo0yeAdsTNZmibKoAfhLfvj8R8y/l4R9QTzBNEh5jC5hMIS/FNRN8/GDSAq0kz/6SeH4Djgza+soQJaA8oi1qunHS0io7B/GfMGkXW64Vq9nRKLGeasoBJNv/Yv/CYuTOj56htCvbzp9wJTXBiwTO8AV9u1lhILKFUqioXaoJnlY3cZsJqpRzlTUmNPAM8DooiEHr/YFio3C9fmWKiBfO5g1cNeZRrS89DOtY5nNRVfp/dUD8i+dkctSPEREYtmEBZERC/HW5RzdDM2cpJnICFJ/M1eTzLp0uljOyHRfvji7LUS7WkF2fH4X5JQV3KsiD9q/OfW6im+fFg9sTOBvVhuTqGshfByBr5L9GBGhfVWRCTGnz9rJB8Dkvs9YY2lxWK5SkV1maInLWInLzg3dNOfbuC1vE3vIwXgbnYunXT5jd+ZrzGfTb5zv5xdMw1y18p9cwPzL4qK2j1kOttZd2xzV5aCWi07kYrXOFwqNnQquQV/ZWuxv4hHM4uZbimxwfsl2wHUM2VEm7WwzZj/GsM1M2V68jOva0nzQgdap/YmOk5r2FR3AFet/VDGKeVRsiD06qCwqwM9TNFGvdjXcMvnRINao92zzYOOe916XYFRAepdN7PJoP8utDyrc06Ve9SjFXiYYExkJZqCVkfQ01ghNjnibeHBEoUP06GcdFfiVA0tw1r1UTzDnSr4Ya6MlqTLOJdMQEwfUgWN3xLJfEDemdKbSC9k/Ze7KQ8FIPbKJwLdx0tHBrDPaQjHtNS9c20q+Nc3Hi7FdUfD0K9cUKQv0P4KW9Ga2NEpUh0C6V/xI6UblupShXRoa+EkkvV7M2vV+su/qW/JF0djhxX3vMZAEvHIXOI3TrLOl2Y5nnO9axQ3WAOwBceQqobX3TpAWjwUQA7R05smiXtFrTaW0FmR+tBaJJ6GTDk5wrtbUQwoKP41moc6gZ2licyh2IA5q87M9JJrl9m8ICqpbSmyVJN43uluj8tj8wzNRE9r/SHiCzzOFDBZrdeSrUwZCMNZYdLJIaCFVuP4Q7ynRiNQLE5+rczVQxeV5e7JTI/5zuHx/dF/2Gde+a8K+LkyWlcXpktq5dd6b4RiWsXQRKGdF3DFTRycSwwn+C+Pu/mAe6aGy4frwStnK02+GCPr2x3P1WXYqZOBXVNrSshzIJCZ4Q/OgU43XzQ0Z5vUIE6pyFRoYh62CzYqxVb+ilPBKuxamXECIWFrAH4dLvmffaCbzbghaxdMvk+arBVpr9ae4nUl50n8hT6DvRB3Rms+I+FYuK7TxeRjzTvJto5iLDYSvDa+GDf3G82kCyrKxPCPr3ikDSWYExRW9opqLQ8W/CDzlbOGUVB7mfSvhbdNWvLTY8G+jPsgcvcdpvM2xtIFKMivUU6f7uMYUJ84OxD0VB/9YxUCJPLnrfnVeo20+MIMRWH0R8I56jOaRjhFQ6/Eul4jguyyT+eKqc8k/Xnw8hFxvntHLOx0aadEdapeWmzBIDku8yrPNhnan0mYh4tf/cJH2N8dAiwEBSN94t7OzqFiD/sSE2XrMPFNmxluAAu60/7SnNnUP+4455UPCgABH+RIIlfwDR8igmKCckZXDWiSNopaEipuc6hIeEUjIyvF/YSj5b6XpvVOHc3dOWmeNlJiJ+N/7X3f/Z7dJ5HQgTvy6+VbyBFkO62C00pitlawjP5ck2lREdajCxzjr9vcVuSwmtd+44bXpVRATVlg8o7PUfDlS7P8+7oXPTILoXddsx79Som4uPvYkRZZAR/oc4G1jXA7EWfDEfdHkeEQcw+Pxrc8DP/beRz8g+FvwNCvM5F5Eti7pvrmEj+eYMXafKW4BtMq2coKxuypq6ORuDVou727pCCWrW/hE8AZw0uSOAhwkddHtmXMfanxfrIAxaVNQQ3rv8nxRlhNkuIXZpwLvXapxLjUQ/m+VCx7iUWiRbXqKmoFdWYoZT+FSyl0szztOfOvVO0f+9eYlkhz/V6O+I1k12NKiTRs3uwZBHoaAZjHZAXV7xiP25SKJIcL7rd3EXtB+3cKj9760eexmNukX7Fs7OWiiqvejMZolu3Ji385AXNFsNavvB5zuQkA72ymmt2AMKg1w/ZantaQN0SexwJ5WK628nmPsdyfdi3+F7n3RilqXL1S2bJacEIIqWi4GAtyzYUJwQpdRVBFIQIF1GHMmRDTkWIJe2o43XbLsuTFNweSm8dajEGA93a0JzmqKq8GEM/qyWCLsELqhbg5fys63o29aYKAI1oeIaIjk5ecDOYt/AOoc+zzjafk/xYjrEW0sOw2PXwaLhYm5FmFmp3rnT1M3du/gDxLv9kSrOMsrT4abBJhaMxt8ow9FL8mhqOKUydJqWzT4PtfA8ZzD0jarC6mt0KhUMWuc3CiChIonlnVzpdkvaksPnGXbQChgtsYdATzRfhzxqDZB1cFsGuAVWsgREEK4unQTGNiOscYQuBLWyRASXtOxVjBVNF6M1kHnQWia4Yo5+ojG6T/RFnEqnh64C1oKZpMrEnw7YFEKLSLg4nr/nhMb/4yjDI30lp27eN/X9tQpzmhwkFFIbxqEtb9kDyEN1WclfvnQ6jMu/qPzHA8FYyQBYv7uePukGm6eZU477MzMUycM+aBsJqdut5ml7msG3BpGz9VKFBKpQfzodQlhfs5En9abOG0FSJMgmCAh1dcBuqc98nAb2JdVYnOYaQCOMHwpD8ykwyIZxZC6kMFFWlXzCbcHwCIKmI6N/+Ijsex1S7vRRWKKjiklclLAp9Pr/loLJMePUbs3pbD7LuZpcIIuSz7WzDa49I8rsW2DoKIIwMRmS1Y2WMhLrJNdMfrpzYDcXpbf74WhZpqkkwwnB+TmzZXlXMmJrx9P6JEVQIoZmbo3zjxsgP3PGwjur+nWzmabjMMp4izIv4wPFVySKXPc1DWTOI2/JlX1fNsz2oeb+l26ZuL+lwdBVWQVGC/T37tkHJ/TEM85eJbQK7YMJQtIFpmg9gQdWeqR5Pp6yC1eZdFZwSayKfzSufEVxK1UwYCtvyliTGYo1TWgc9D6sWk47spYoGBxDOXKZ/1w2GumL80KfPjOc+5yc2s+7GbeE4UDICa7IiRxExTShP4/TPuScQWGlx4PHHaaz0L/sC6pgTLhvvYLIWvFmwAFyK1CRhzomCeDRikJ6gaFfNghesVBWP5DyXqC4a+b8Bp9MxSjs0n2YuLW88GGNcDuNIdX+luc7A7ebOoGO7ValCqIKaWEUt9OiGUwKeDY5LXg2OJY8i/M/QHvDiH4e0qHhg6rYuEmGPL8AMuPKWUrpKUplayFxAZGcs8Tl9xPiRBV09R18AzR3p0kjKbvsOuxVGpS5YETpJZx69LIGR9NwSY8co9K39Z17Vnyi562E3/CQ+tgxbTsrS4K05B0jUjBcHbhwtk4Fj5kFXaGdzAlal969zgwVMXjaRKz95c10S7TQSnEeXoa4pkSjGDPr760fQ9uUEX1/cSN8L/6vlvvbxOvjaWnVstbwS58krjjwJguLiqAXb/Coa15b3JcYI4a5qDAewk2/qszz03ro1UiN4eSrntvjix71xg5jaH8FhH6GF5WIUfeRN4bOWTXR+lkdwId5uprJEbyCZkvhLj9VSsIGq+QJlR+Toj+qoNHDggAbiezuVP2cI44KmhEWXqYcBVbTU9vFQqFpHo1zmZIBgNzf7Bnx6SszVUQxoSA8MA0KV17dCU3fIuwzsTjSGa8xu5XWma5cyOTYR3FB5pBPv1Y5UdXQOZhnMHgrPbTJHKCW5MadRgmmLUp0yMRC1O9zN5c4PkgFit52Xopk+IwcX8LRHbiV1F7joEsh5XJiEyXS1ZDS0EpTd/kjqFsPBI7fQHX9M3on7GYRBbc/bwGacD9ExHm8LbW82ZgHGpe56Bvc7qjVQhu6e0x1dbUrLcAT97nDnGHVPIxkMpGNVk/afhPtE909Aw7g5Tbu3QjxN2z6rS+ANxoY7XGS0AoA6oaowtqQD30NfdryH8lIsa2ds2AbgqqShXm0jAFDv3EvI7DaqJPtEH46IdFMdJZjtUdMEPlOmJZsFahgZ9fPQcvix1cGqmaj87FHaL2IvXITz3dtp8JqLjAJOUIwnkkiQfEn4fteleUTe81WfqWaioiBAb6ZQIFbP2Ni+XkM63nkVhXExWFVJdpsRnTgSXXLllHzlUIIWTsA2pO1tmzV5WXjiU6lvZlHu3R6j3AVtKJlCi1WGR7MPf4cId1OVmOko0fZIJY8sM3v58jWS+p0waVZiTxyKCutRuNi9xLs7KO2nnTBUc4vRbGjpUhixVqn0jCrnvufNpjFICzukbH0oV84Pqg9ZJFN7isFfHJXQcrVQYsTjWvLs6mGdwpCF1LDh3OllKtqRA+CSvYyomwVj3xB6KmyK9YgUC7MecGIzT4Hm6eoj1G6LVeGZ/SlD4+mDjLRsF8Y41j9xrORUlDyk3txhjsa/dx7Mw4Iw522DMFkVT957pUTSIWgkQuOy3wwmkWCmM0J/p+mxNx4kjCX0dCb6t026UNIBn5kyGri6yOtnpe72FeZkL2P8DftzdYHJZNLs8+maPnoL2WS76OqqZPLeK5cEn4MYL9xWnBhUudKUE+Dq8OkT4F9QTQCnfaJhRZpT2dmpkB8+8dDLc5XenOzXzEO1E1AaUeKoJ0EVOhH2x4XDYc06OZj447gd23XyO1CWn8PEBafEu2neBRerLpCrcv0Qv5/PJfVsq9D0HYVkei0PeZY06RHb4rOHutKimrnp9n7253nekISZsW5Qd5yZVIuYhoVBLM6VcxwIlg4Q/2WvtTtrXvE+wkQYavdSkL/1cpauN6YXIRkTnx4d+KcA1cFz2dob0LWay5r826NIvzHWzx393bxb0QN2jYHhV/mhUuQZSM17w7mLBW0JhSU9/S8+WBCjmIQ/wxrAPUrvk641mnUjBgUasGiSoYiyeUab2tQBoXtpf7VlHzrHF+3hU08G9HzxvijQrVkMGc/Wj/qpY/a8mFzFOQLAft9rmNPiuDuJi4m5WfI1SqKqOrpXHLcd2GA347Z5KthSG4MKpz/FvIlSCpju7jSLc4sYAc4QsZ/ZkCFyFlFNm8W4GkL7+1QXSPwzrKMrKw5DpM4EiVflcDHYcUxS7KfMqBIHSu2xdWVGY/fj3M6T8QPGAYB4q+m/+AEGwI5v77TTzychlL/S4CZXS+aBE5aqIgghJh+MZMVgltzvgHB2C/rrGhpezmS5c2F7vlH+5mHeRWbbFojS2Qk4kWjVpZT0clC4el4Xf5FfNNM4eBL/1uFaVA/aCkndxuaZY6/vaC3vHCN1G++NSR0NpnHreGNypslch3eFHmBFO79gkyeSsFACreQim2j1mFrXF0Am9G6d1eJuipqXPDI1OfEdsEXGT2avDJhG0wdtHWa1IcHMuQpgfxWI1/+AbtlCaXuY1qoAvjqSJI355SJlsKq85T7w962/YrE8bqEIesWRAHyTA+uDThl8WPgtC8t9ogekJ/+quKml3aNiRKtFNGQSXRdsotFK0Ywr1JE34bXxjHn/WrFNBmdAOaKpvGsIpO9UkXzE/IHIsnz+G4eH0NnJ0LuWS9L9T+4bfndoJtbGud0POHBRfpnmHtavkYj8fTera1mYxEimdk13F77tzjGU4SgNvCRsVLzmXerqkei/QCdXwyeRKY5/tRPYV8vLF4QluEdcMCx3lateAjhCfzlHWU6kwJ1EzHc2Fcga7dSG+NowSWEPicar5QUa9VrwIZfs+LTl25Bk7Os7lUBIQi8OAQ3BoxMtkq+QEHVMmJUdAN7XPVPHGUVulPlmcOEtlT/NrfEsL+0bZF7Y+BWNZarRaIbeWcbI9BwmVUqxIawEoBeEnGRGohK4nyw2G672Thc6/WRhEYbGrgs4Imy7QyESgYBmcWcDmohz+HPTiPLOBmpcgNlShEgAZ9//K+urGc/ujwsB9AVdEp/h+mgJFD89V/6ECs06eUIj+yw+5V/X94C3PAlpOufuX2MelRTTxm485oOOU8trVHHK7uAiNBHPfocpk8xo2TMNT8C5ll60d5H3Rq+cc+3aX0tzPTq6QNfnLwBnKfXLjh/oTanr8Foynjlj7/dVIJzz+m86FDeaoaQOCJdK8aFSF52/4ptcI/4f7YfrjtvuDK2BwNgiHiSMf0zG817xv5jNHnHDGXLHwLihYLDcI/f3kVyJdOdKANWDuPZ4Q8hw3xD71Bxxu4a/L5yRZYOju4VcrfBc59bhtQ/KwUEf6Oqx12v+npqodtmEhqd+AJxGYMBXjf26nveKCU8s1dxb7ZH7VY00GRSG/QgXT2gj5zTOzBavc8M/hvOxVtuqDNT+peArnPq8QpKZWdk+o317zI/j0R010eEZvhMdbiUwMi9vHUNvejD0vpVwomE6YO9dctM/7HdqMr8btQ3DqUt2PgK9jFJ254o1mnJyHoD3AreTuWtHiyp6s/ySUy6/5FZTjFQRFQXe37hnKt8Khs2FsoEgrYQhIcU0tgjgax6Ev/YJ+3dGmbIPi52O1+UviU9qzsQJvl6B3wt8SQUHYmae6cpGAwZoaD/nUOAirp+3MwDY4s+zMSrdESiBthzVe7mJ5nGiW8+O8lbxUdkhankiPTzJroH7XA+ORInz3RXK2Yxu9CRF+/RyS9hyKtVANfx2Ie4ukkhgiaS3xZxKssc1odTsd1XWUlF6Y1c92AF0WpShQU3mGC6Gbw0d+ayqRPNiS/96alqT2kVdRgu/51DEyLf8iDX6uVkv5Tfh5qlwvbOmw+wjN/T+8PBGkaUWjVfxk8t8AKQtnUU2/LHqprYM74DV206XO2mFWkpMlCEUNjsMQopN1s8TUksSuRB/S84DrrjVl0FGhLQzhqMyyIU1IXi7TpBn/2NFAzYXALYj0afx0FgLDx3tvTBPUqbVZExInr5uRdylzGGkIBAI+oolYJ0WKH0siUxkbtjV4FnuDTV2N/Z6/a6czIqxrAK4VtIsSPdXz9/DFCy9aUL2068D8i/UK126mct5UliqgwcWXDdHqHzlY1lJTXQrjP6erGtqMoBn5oaGeNPymAHCJuro0txD7VKjmFgXID9oV9UJkt8hRoH2P8MSmK/iuwBkrB6lig0ipVhpybeLrIPEp0sxhw8K5iJCO4aIqhzgnkadN5xfcxOVLhOWeFBdiUWqcnEoZwM3/H7NJX1vpaDdlv7QpPa51A5iFimQ6jXmQL6w33sFkWkZVmh3T9nY90vK+uVyVAj5k965zflhyPak/z4z4EV1hCTJ/hf74ZkMtnIY8vnaiRXUaPHjOdnpl1IKIIOmji1MGejR/LmSjAc3w+K/2SHoJRZngJtPaVELzROdzkYmsT1P+UKbSwOWQp5FCol/sIEJV+LdXULNmERO5+JKGQcAPDjYxoo3V8C4Qr4O9ySB7lsC/85vkgsU8rH2/dF9anwZKuXqyG+Y0nIvNFeD2Q0M7IIMipVMaSyR7zpobimakp5UGXgSid1++CBM5dEqIfb+CdohrvFULr9dOcn91Mm2kw3hVp0r0ByRzNSmIbgfIeUMIz8NBKj7uSDbLoxBDYIt3VBHyaOGEq8jhEU4GZI8kHZBzlbDpBVu2spNCjf6I39whYT+qV1OvJnLkfEdyiTkwRC8c6NM1mhIXwjUxDRgAnwALf+ejj1XXAfdmjnaizNsxDNRztxeFpR9aLPURfcRZyOrAmpi+8pGhKs8oKjwxIzf+Ya+dFfBZxt/NurFTnPYGLthtXt5K3PSkOkWjeZ4fq8xwRwZnYwYPaXnhXs4ihwgLRuH5m6pROl6ItCOk4t0gzBkr/41YQlBwTFVLBwR+1rDpqVZZymVPYYo/A3hC6QUEIss4Vc9g4t3qzSKC4IorDwkNoVTetlKNme0IfORsDzIH4N90if92stpNYExzHDISI/bnRkobszjk3WFNWr6s9uoEvdgHhmYN2Qrghm8YfVsY1U3dLFLkhr6eUqbsW4F5Rs3XwCyuSQeaigk/MCuCy+8YvXxFicT7UjS3YC8rGwJjr+2c2p+x3uzIx/WMSDjZM6dKtyL6YJyNHLOpah/i6G4asNK5xIa95PFVIdeT5jS798YUn9U7Qbh39OTJ/dFs98eSMGIICMEzZIaRD7ZMqaggG5h6JjXRsr1SRN6S2JoDS0Q4svCFALEB1FvrdRu/fudlFX+VzzqTldIAE7+gQ+9iKqK9IVWUZyyNqTcWSIF0SeFzbGsDvC6fz4HPk7wyrmbxw/PaYPSzzA0VG0EIOO0lWGAgGqQxatXaos2lW24v+Ov6mbhz+65e6WE0MyxlpG/Pn3cHVblAfmELt04CivDJZjIE4Cu8jP6ZxokUdYMGPca1wil1XXkHjZR5UKLU44m+tlEtflhfjNDUN5MGPQgRP7LM5VVx+Soy3GEOqkavUUCrdT5pxrRRzyijoU15jorh76ZnJ3TFaunHqUytxKZS8K05sCREu8ny1PZQ5eW/1ASm6eG0aRdSQDjaGL4oPJ8ukmxkyPr6RMF1HQFrtMH0vDV89rtVpT+7sII0UpKrdmX/YIFrueTm4soqhY6i+u3nQpBENDo0Rmhon6nyJuFhmU4bWRW7hx4k8ioSvjuRB11gC+m+myAnCosmlWZbjbvCr4XKkWrSHUUj7v8eiLxf2H9vRMm0lC8TsTuw7NoGdMymzfvoKxo70mGS5TYcQr99UylMXjK+8KGGfTuqZyVVo1xpWwfu8tz2WVhxWWppd8h13oG3SaArEP/jmrHmohw3AllaYoa9Qhy6V4BKY6giVxldJEyHjwX6hPUJaKwSRS5leGBzunSCTenmoVUgLWFUAr73BLZpMwgH/HcrxxPQZdlvfvC17xTvOMm9CofczemdA3dXvcaarl3x2hJZbwfySHqS43xLSFc6pirP0USQewSt4sOtQ7o041N7uhaxG7VLzXcG8dpN8nhQqUzmxGFKr49uVqNb5O8EhkS5rHXLUjwd2GFPl1HvYfazCk/BUNE745svQA2pIhtk+sn9O1kbLWezwtf7BeWL8Eq+HjwdGEBfIQTldYzWmLl4/tnmrc8YX+JK6qHLbyK/AWJp75zgnX2Z/uJzDirN9T9G28WSS6X9hOiaNE3LVYZ5t+tN/vSIAuhMTDBMh7RQBjBl3O8Oycz3CavATlZg8P9eZdVB1q1C0TR2o8iFTeWTE7FAiZKSsFth5sET93wITQkkLWlLkZl0u/gyPTTfb8XBV+caNRKstUp2e3yxmsJZKIb0WcWHhPKKr6QOdh6tZ9ILlFixpxKv64Ahhgw4PMUMKxo/Tf6Klx3MSx9TcmtPF3y7Yx/RmFkCspIIhNf0sbTRV4HLdJwv47uBjOykWEIPitZ/tYln7Me9Gt53TXoezirxXCo+NTt1Frm/S6wcqP16lVWC8UHTkiYb5Cn2F49knIBgqpnyAGr55v0zQ1NIRRQwMTUjwMha2mM6p6Cz1cprtxV7irtmQnCCED8duLge55oTa116R/N/XQ80kKrt4SUlfuR2P+uwsDjzQrWv/cO51vAxI9w26i/3om4l6v+Q8S6LmxLwVFXVppKlRxKpZJg9Nf2TC2Oxu+jz/rR8jn3IvNQnsXjcrBhpRnWVlJcuYgfknnLdIEz3cLWA5Fr+7disN/i9RvKvC10XUK9VSuRanlMj3gzWB5SsfYucHjRFhVM37CzZ+v5oHGAEKaq51ehuER76NXPktq5bfSzLGxtH3ygR2etS0H2NFv0Snhz5Q8JVQ+WG6qWPltl1dkySlEmr1cOEuQ7uesiY2C9lbVyQOHjb5lmQg2SMsSSOII29OHNL1AOQP55RCBAREi4pQNzubpwlsp3A/mMqQ7kWfDPfbUbDWNJJmMPjUQ9gU9SiiKpH8xqRJXDNBHMIwJmRFjZ0TkHMYlndRxOlXr2iVZfbeH9edCCCMC7Nu1SWkqMyhBIUL2nzY2/E/NNW0onH73mOe1YaHV/4kKNlwSxN81XPqsfvNnLcbRUQK72RkzveHdigYMawglKZVtbGE7W/ngSCEcu1PteSOPPXJ29N95I8c8Dke06EJDnAyAjMr7f7XBy+IQcovRFwOHbCj9nW4COxyHylaKeiVvYOzeIT0ViiOc4h41tY837D0WmBFSyF6trrQIUJ8fp2R9n3Kk3omr/Db3qfqUvPPd4fPd+YCQULMOzcjUAjk3YFjqjJCHy04i2Ol5b4J7MTIo7z+kZwjK791wKUfdA8BEOiWWaRXgxnCXN0OqWt3SUZP0N7gKhkh+jt6ohyhq0WfF1kiQ3flI/c70Y05NyOwF5Nc2jSwx35Cgo8FaA5/nuvxNY/SkPvWIpQKz4WT8yc/TFOLXYeWcYjQ/FUx0euBE7sYgdReHRbd6DgiqCEUhv+pL+6zOntYM4VEM52v/7PK33/ccSvKlHn191n1kmhjSP9+iRPewVzMQ49qzukVqroTHmDs95orRX8iEuuSf2r3cEBxFHlk8UBTj7sL7qa4tzNWGJwe7CcfuuyVl68rIl4ufo47O/rdqalq4iBAfkV9hi8i1y/ae1CQmzCfQnl3iFpeM0yOAhozsS0lu0lftaV4q0mEjkGi1BOnYMbqelibsg360Y+kfZYtOv/5DvYHGnGAWleRbLrtiW3VcSm5ptELmaW1hqjcDBCVVMIZBmBqQ/PgIblvFXt5rJS8R+O32AIdQqQ+MC6VvypabUfBlPghRAXdmIYT7OMgaLBBza2ltYItqZ+KoKN+sfpStSCaqcf3pOdObGAvmyUpW5nZjC8fiwU2OBsT7I5ZurwUw73MFVyvBuIJUL1lWgc8CGpX51fJ8jENsZG843WXpv+zUmtBO4VcXfKwEip3tzpJighe8hQKfLA1HMUhtVeht2mb9TV2ru94lmPazsHxAGeeNvjMJhYqqsZbyJV3dxX4bSa278RcVce242CenfNWSzM/BRo/S+azDYubfroM+1oZRcnr8VMdewb3JOTBWHcWpXTSAibxVvdHD2ggpZpbWuih0+HIRQmADNnAZwqn4LSMyzQmn43dYW4Kp8BgaD+l9WGmfocM0wNs0oHCqBYVOjy6llC8cFyb3TeRbhNUli40y3AOfYcCBDGef5yx0wyF7VIniJWl0h26vEh8eAdVQ5DLxwLTmH/ja1zJ+g6kKuYDtaHcR3dOEXPkA6dE11GdRa0nxnRPbdIuH5yoUNX1n1IFpbgiAwmTkDowREbbB8RgrQa4XtR2UwdEWMUD6/uyhbs4AxaTlATMgR+OQj14QtJ5a2t8BuWKaD4HKPejyGZAFhLeOPalsE3KQiPY8wXTf9swTqBFTksnRHZ5KaloziKaxoAPfO0GuvbPymEajM3AZ/e/gasKE1tgOyAWi+B0gBSPnTRb+/eCAgyV3tEgMX4h434W02DWRvxmjoKEIbXvy9zKs3OpCsbvp6OWoW2meMI66DAZ7sgzzwnfQrabGr1FpZKEwx7L5ID1y7MVL0TmQ6klhfgQYkyrvhh/Hd9PpSdJvjlBZnHouXhU7shuTUKXLOLBpLQ3l86qq/lEeTXAV/dCXTGbEIxqUMv1OWxQxHEuG7tyHoeulvJdl221PACoL8LTsuPRDGPc+z88kY6qT1z+QBPxOG5kgtElSiMm+EhbCGB2RYdio2PWrMZkruvx5QyKeU9So4bqLTv9jTN8+1pLIuMtUQ1KE2ucnpRlizjAsVf1MU93cKabl4/xmEih1wbdfz23U3gyqFCOlIo+BPGy6BD0AUu/3XfUF9hZCYPMpMaXHIC3aZ3Vm58Uibz8iFMtG5LD3Xk3qJ3WAswp3XVnoZAhYq1ItUvnimjL8KVFCIn4JonPiXSFKh27pWjWZB1s/QMF1vm+CH/RVx2gin1Awer7a58bviagQ474go20u9Z3fInlh38uOCzVITtSxboedvrJ9EY8HqTYP9njxOaILEFNeRwKCowbpYfaTUrXJALZPjSBxQQqfoETydrT8PrXeG5NTfvCAWp+l9n/c2ws0+YuBiwVgvvt3AREGRuVyNyvI83HHoqn3dq3IPsiswbDXofSkPVQm44lDe9iDWmDbRLTsldgZdGrPToVh5TWLK9vqg7xnh5k7OhTkw8mRCJqzQrs5qJHf+vYxpFbPTwYdeU76R580L/nWsWG8iFLIVhNaGEtkq6K1QpCF6xbjEDvZWNi22jP7u0F+BLNk6kGAbkkdv7zv/Ark/K4SOzitVpHO6h7ymfU95kDNuvi9g+sZXyGEcBEThP0K/hKVfanIbxZQnLeqMByiyNeHMlYhJcotKNb0Nut8JpC/Az331FbhSk+1ZJZtJ6MtRMHzJyq5vOTx+WX79p/B3BuMhUuYI/5D6xaBCnE+wZJfZKi+KfTttLd7tqB8xK/xtLqYAfN3JXkfebTUBM96y7yR9RsCefWQfv54/tpm+6RsAXmmOE9d19AB7ArgmFr4ozLqFQhf93Id5iAFHDUvjMZBLkee0OTngs/ws2Cl5wpAC5YG8MOzW7IVbc4H9JFHVkXGgl50pAscCa/m9/QWvLcQVnQH+7fr8+UCM+/2oZK/hwCw/wWDAprptBgc2CbQEM+M6PzPgaOfprDPncdkVz2//9TwuRpZHfKgphZxthByGkZgI9mL4uboTsezpLCIenaBGEFIW4wbGA4jtGJPsJg5jbK6d/pNZ559W5jFXuRxLWvCJo0wIBACjsvDMEmCRqMYfUg5dAMbOAH6zEYAccDj7DSwj4MdJOC0NUn6Z0MJdUTCG1BEo+THpQQOSBnkNx6hAo7aRV/AxR9HNF7w9TM2dpnjHyoZVRGyyWz58rvtYIqPSpMFfMNW+PEcM6ACZrRtngOZ3xeiJuJjVMCqedftVB+IhVWt50vRIIOUbn7cDu/ht0mPMpOUfVytfUO7oHzEn9ZEKbEbgvCbj6mJKoNSJ5I4DK1RnN3bLJsHDx5mdzV5qcqCU17WKKC92a44UxIfhSFm90z3Gf9ViGhG/SECsDSbqACEYAhVlo4bWVLrO8RYOy/yvBeFq+Eqbqf5aCxv5rwQNJ6bH2LlpydbM1SzHDQXQTCEyMKeE63tzIBJy2c0v/ES7Z0KfTow7Tf2zXu+T7T/P5P+e8BB4yV4zfapSi+0KbZFR/pcfjuby/Mer6bId6s1+h8VWwWpAA0qcAZJrILeWpnpv/WSDvFWCWDoCwo5/bROG6y08ydGX1Z1HA7ScU0+lDrnVNyefWndT/P4WdOHJ3xrIXguRLDgoGMqChXcrMwtIyLW54Afnscj+WRjv50kGqeyldPqUEi1bjXHKxOtkoIeppb7IYefYW9EYt/HYfY59jknKC01VZXlX2QZ4Ml9Wee2ZS/22toenTHWYxSfzYYlnwT6DR0ihgOa2R7QyktlygO3Lm8/Zl1eKMBcCWVoQznq+ZB3iCCicufPIv3X1mjFcUIxXV5kIEbFGVFNrigutH57QbS43+DE5JNwKM86veSCcfMv05LxjYG7j9QFPI7ZicwahB9K8rDnhpAMoPH6rKrYOwEFF+zvSy1pM1wgQHY5NE2zmx93zxurPpUuzgnnPyfR/WROopUudFm3BBrI02d0oHWTxjQD7WLOUEHzXQYf8MbuT8qFXW/LUjh4cMI+H19j6ej78w4lrEjaKZby4VUxB58SzGYes7aTkytZikZsbPIqXCC9csl6XYJR4fT2oFWedYShw8XYeoqCG6H/WizzU8k9bh1wGnwxTe3WdyGMkO6T7PKe5PQeoSmlvxL5Lyf0UDEl89gaOgYWwPIUmkJM95QNuWTv4vXePOByutOu5/F9JcmA7xCCBadPAW7gQuFJ7gU4LkYnvgVxOCuyRV36YuaGbnJ4Y5PpSeuA+ZEVowzF0Cumyv9NC/LSXFLlxb5m/MfGps6OmunO4sezYYh6hq41rrWd0y5ajvwrCiKuTNJBdPM9fRKXoSG5NYdBt6Tb7v7SqoOEmRLeXyUbr8JNR77ONvVdDAKC+xoTPFwLvB//xBaBEhCec39Rwr9PMq+z/x/kIl5Tfs574sCHDl9mpuiYwHFK19jxbQ6sUAVNYuCc6bdlTmy8BuC3wp+nARbV9lyH2j/Hfp0B7SKkhaJgEjpju3+cJDSM2bzKF4bQ28fsln09b18tvPQPaZ9aGphFL1UC2lx5cAkDyBiSiepAf4ZDlfcK9vTCoXFGmISsAwOQzkWtj9UC07qf58fJm6NGEvgdwxS5sNG0+8c5hksTb2Xj5Lq+yQgtC/mPsCAAMLsGYW3aiDAicAFC1RLMOw44yDvcv80YTT1mgrtPHrQmFIs/ivfsbuDc9kT6UgXQU4eZ1OTByVjauQIzlDCV0/85cc3ZGD1O8WzGNUN4WvRPfMLgOszAO06VAztz92fRdnCQS2enEM25VbwXz59qoZlSGXkirJDYIaIoknAeA3sEBWLbBWLrs3KW6a3Uyy++/sftJaPMUVg2Q6gaH6mCSV6STBAPBLeM0C5xnTiiMIdskRMtokrnwecPZW2xgTR2UFNdw5WPrfc+XZs0Cb6LXzzRcGtwz+12JoUBS+MoykyVOmu1I6N96hFOhaksBzkiBVLQoFJCoYMlcyVFvLQS4xnvsXD9piwbhQoDp24KA2MDTTYZ1lzFyRJlF9MzdYY6vYnccGPm8BcpWhOZdEI/CC99j0nB0dhH9INZDjOZXigHYj2M1k4zHZCJo8jB4efKSt+0SUPO7dcknMfHeB4VFehhG+KzGXSkTciSXa2m0gfEOTVQf6Z506RsV4fNMveoXXgUfU0aK0eoEwk5/NWjZjQhYrJPWrKfDiH7/sOURZQg/MKLQLWbwsFCOTHtTcxz3duxkM5+TbtoQG1qcv/GlPPZN4wo6w9LmSccjgYMt37A2cFuQpW2brys1RnBEGAAuodWoVzVK2dy2DC/vJ8n+IAk2lL4glwzZ/XI/FvMAS+udkfy3ttg4J2mAR0IEu69wqmgAgcejbqxvml+ih3clOlJfdntBmPW540QzdIzgsINm3g5QDh9wd21bxP7dubMrRCVva7mj09QCaab4jjHmyV/nPVTOVaNsD4Giw2kn51tXcESU/uT+b0tuOQi/6bQV21p9WDZOXGawdUbIKeYQ0uxukdnRvXeRanINMHzMv5klG33BI05Dlm4sByzfXejfT6eVzTb5Z7SNXA43oywBhOlQoMBPM2pjXCl9lOAZruimY/t3Zj0WBK84F9OhgZ5bEr/Qen5Ag2B8ZXeM9ZoMOvGgdP83KAIP9OD0J/FVkJ0zjhquTPctQ94l5IVr7ZNaI5dE0tSiT0YXZj+N8oFn4qp5lVn4MjE8tkw4ZstqZKcseH5JhGzeZbS0vJKxYZa78f7Ho7+6DtDAgSC85TIvyka1fRc8ECxyf3NW0pG9oSXGDKiLHkFx3Kw8l9BW5reRUPpy/1gOJVu0QtZdRRdDlBRWogJZB0huoi1J43UQJ5dRiLR2fboump+0HS9eM6CD+TuuH0Ml1hZ7CHifFLP56BbgARtzozMpFP9th10Ow1DNVEVJGd5hTOem78nLZ9GjiIJFji3uX7yKeu+QXcLv0NhU6elrcgM1mjW8hp+mSM6aihk0k8rpQ2NwkBx3fXMydsFM2W14ZlWBl8Zkjni8BKc6KT3jgXyulWMunM0YNSNEg/FfWlWdJyqUxv3soGh4MwvLZbrfNhFFDcPfuigu3wbMEgOLN6S2zJP79K7q/HMaxo9922duga0MZCbOlaRBKzUqgUjG/5t6BsFd63fqzqb+3G61vGP48KWcplVPDOa58XbZx5o2/dXkoNId8J1TSrfAtXOqUVgEaKaY5a+XsdnFfurzs//hsoiUu3Y2UecRWHVW8L/gslCr4W5TiIfdrcYfCwVpq9yhMO0piFLpOpoPpzgYFYwDAttD/In6NPZY7IWyxmlLR/qYXKHKT+sSuzakNi2sbM7upd3VVs+QZiSPOX7P/CGO+H66BJp2suGGSGKA+H2e0YSiwfF8RFRCzR7uLvuIdQb24f4oDXDTHqdGQGctVlixLAxjR5Qh8tIxty9dG7Ej1Mh4uPoNgLePnEup+P+CsXBmVCYH3AbSt3VtICwxX+Pm5+uF2F1pYpQO4DDDruo+f2KU6Pu+z5ABhpeWDrejLy74x0tdfyhuZL9pM1n8fwHhd4B1WS1MPEA1KCL/0iFSm9U47vUlszLi/GXSzta9hBLMchpFSkDOVie6Cg+KwD1iCqwR+jbbAzx/bPGDIVGlWktPBntZNdZzXr+XA1j3p8tfpGYtLUP9MAyI3oYyFv+Xr6lZ4+kpu2BHKP+HrrzkFxdRPirYkrvjxo+lwSR6g/SA7eUqEUVwU7RsLqGWbf647CrQjvPCk8Ft5efYCKHC2qERmQsT40vQ0EIh/G9xh+wLeFLRNw8pEzz35m6Y24H+nb3Q85WlzEU1U2p2nWMUhI+nMhOeqc/uKafccqWErFBNrBUXFJL/W4rHVpJdV6zW3IQXJtdC0gd8CaatNbQffK4VacnrOCFzjHGZoRkDtTAi4M3JPtSaRBm4G0DyieR6q3ppA0uiaeGBhnjmlOVL8avKaXbsF6PCX1GuOnrVqvB6uCYbEWlSPbuzfcUpAMBo6eK2yrfXaGlb2HI7fOUGkGlRbf2cwuk8mJ5Ly60KL16hLTREn2e5X9RdKXUFaVnAKZmUG1Z2BSI0Uqh1SB+t1KQyYJtgDRBZDnN3Rqt3jShKyDp+n1vRdcigmfRRCIgBT5CiEK3DlencDd2/SesMsSzXjRiLvZBn3fi0OHilF6Kt559lSyoBTNgHhXghVk9mMdNZzevZ68D+NkgOXpZ+qucr/fCysY4QBD/Mcrfc/PL3ZC2bjt2mAw1TgVKoOlZPXPAx41xXB439SyBzZ24D+hMxsrcRV8e+zfLsbC3zwynZlXHrBl0bDdY+YOc99fTRD4sJ0DOI2vAhvaXYOZqFwGlMr1JOpxagAsjhK7mryft4bHSzHgVAvz+GzMlaClTBlWLTbtnQDlL08jqjsnnQnxWtOXFDTB8dg/UwOdJPzZ8JmY7/x70D2R7VPs57PLgTSKDPWGkOutV824NcUc7lrjEqL50NOsd5HheM5b9xym1AodEQ4+pk+Hel6IAHKMrSa+r6AOoKKnVGCFBxTwBAZPMlex7s+zjviAGpZ37YTWhZALcAZjYkNN+iiMumcWX2cc7AElxWeLRVwfLIi8cHiMP5boYCJ18OWYNzjZ3LKm1Mjux1W2/LdTj6xIhkonbyVyACerq4Hkd71giUFYBDvoLud3/PrUGfQBzHZGi6L5rooLAlwVQAxEw5wiBz3i+volFr5GKtu/F+W3HHlVhd2yZK4lZxHYCNurS1/8bglGg0o66sEpqE4bms9rwj5FnmCIBeF7eH2ZZahk5YBmQzW5JKFgJIqh/vyZkf0xKbp/DfpeJ3vplim/B/OUtMMbhUxbG/eNKPuYfA5JwGOOfPkWe9GCb7ozt66hQTTCNzRgrjU7WnuYJaZ48o/lUokF2Q8PGKQe7Q0YvuC6l13UKTJarYsFnVg/3jfwAPiO8aylYVmJ5p7Ufr/NeT96L5OfXsCjWInDcnwIbUFtB8+wS9fD+ERXZ2ED6x+q6of+QK2IWIrM+Ntwg0UB5yEfC82lu3LZMNJfRFMKkC9/ra/S8J0Z7BvlDoBGT7ON9ZLddr9vOI3/tXyHIQpK+lGJl96CgTG1ztQLLOHfGfyYMAxEjxQlaks7aEb1lpTsYxjqhvqHHjm3GhGwvReIdDgbGJNfDHblG+Dhuihs1VbN00WoHYo7o16DPc3MwTMqIyOoiFOTNInbSdTJBz4XbRTiyhBclsLNXNM4p0/qvGCgpcSqkGgJ6OoatLXkF6RDQ4xT+JAj84kw4wlVv6MnRObmNmhkbLKUQD/LzBjbuNoqmQ00/To41vl161+TBwh9geAN0qsDwXuMliUBXSMVxuuQi9CKTbfXhyyyrtvEtxHTkfdYXisQGMZRPpswmf+6EvHBg2K45n5YD4IH6AJamFICXnfaMAtyJd5M5h203vEGNodQ44prpSgo6ZFjqXw3mjTg01o6nbpRqkMO64cpPiJhU5O7o7lH+KIN4DWmBhb42aCqQ3W44cT2L4f0Ot5aUWYEFr+0mY11oHntMq4C5aLy/JgJdOSwrBesIlIl8SiGI3dsfsluBpf05HKGzDnZMG8fEwmEkzZ0Zj3FbnDBgRN7PpAT6NnedlsNWen/55APfMA/TO34g6vwWqT75fyg1F6f/RzUbEFToOa+p2f73jXEVSUAamrk1JfZmyZa0wfwO94J2o2KOsG8/Lb1ospTDIP//o4BRzmtp7cPBD5mNc69KFigMl9nbDAytNa64l1IZfPMJobzIfN4Cg+IAofuzNmWLOC7LkdvE2+8BYnJUZgHFyOGBBSLBRCiWXHyKE+TOjkd7pt7jqXc88+NFBDtcvRb+5U0lmfkepAcf5ONgIaMZ162NBwkwfPS7RIYwxwpYtqLsP9ywSGeDwTlVKqrTs/BJdK7dF6h3FF4Q8L+QH6ecrDe/iHyhgQOg7xR7wTf+OfycVe3VU93gCsbAyvf1fhiBRPhKKfQKrqEztgdeeeTRGc0HJHRUTAsxLPET+oeQQNAA3mQNxlcS0eQwNhgw2QsLilyG/EXqN9gQoCh1BsKJsNQFT7DmuS9KZGcaVM/QT++wx8qkTHiEa3Skw2eCuCuVuS8Af6rxpBG+CQ8TtZjjv+lVcDfJHuotv74V2qdnRQmzWF9DDWcScFuEPRj6+sa04f/4KMCjeBT36qgNSpWwfhn0iEp1Wi2HDCvmPq8zLF/NCbckdvN3ApSkPf0daqqeZWuPWosrDp5bZDSNDvCE5L/126ZSSjUyNFrukY1pVftUIKNSyOk0P6ym/GKNBEkV/WuL/Pw1R/MK7ZQlTVvnz0Au43tnEKQaChfjF1oLAStbVijVzSDkk6527wUlp0ToPjFFc6NOsp/zfOMmMLycxyH6AZts74xFVwTio0XCYHVlNTjiYEYjiGxmoEgvphbeLNQR97wY1wdjHz+kW8VJuPpzsvcLObMx9o4WWUBD8Zh9/fxW8FGAtJA3HwprdF/keaRbWVCRwIdoUJiX8X5fHakvVywg1veIUAGjBhPr+lspy/8j4kGl8A5q00OKA3hMIW+KlE9fBDB/T9ggXsR0IHN+n11wbDLN1+QhHems83gd9tEPLGUXexZ0rKWr4X4foLkRKPG7VHAtGa4oNQX4ahQU9jmUzde5F7HB783pnuNVMmx68bGRk9d/oHcglCYTWcAIy9nlzdTpGm3bUOIc7bHlwD4lYgQ/+dZLPglEzswbRscq9B6FdHI6TEJyvDIs/EWjzD5lImcClQvvSSDbWFzwZCrBSl0AY5AoHXvSjeKU8dpGaJVNkpbLRaiv8YCZ9Oa7iDGkmPo9lYyt4d4gRlQSGxMsqgLd2K9oHeYtEU2UKjmO8PBTDXP97LDNUAN6/iQn+JHog2beEwMVRdAgHkDUoxoSgoA4PNSlxhdAIopg26D0ub0lyDCJ5dp6IewmWoxJDI5gyo/GN9V3JfKHRt9VeS4lb1Q78T6kzPsXVed5MShoRPjowcGcUbgZFiT6+7O14mVzTMOZUWo5qBLsl2fmznaCvOatC9654YW5gT1PmdWEQiK7MxTtYJcqoqAdCrBMSTdJ4ib8AyAEOebg5ztwumFYCQeTeiRgsN2sKSyhY3SVOIBBXxceWsrfNt2xVPPjS161rgRo2xJJrRsyIgWe8jwrB1WeZRAdeIeapzc6PVfTKEU2kQ/01nADz8kSIMeHlwmtqvmqK3cOzMBn8B4lRISvu212Xpu4q5Z7c2PRBDS3V5jhRWD05vHPRtAwzAkCYIqfq4yIhfzm7OaUKl7eDy7c89KBewvLCKFMfyM5gmkRAl9ORlNh4aE594E/+ACWHcqm2/6pvjJ+d5zrhYvSQaYJPBQyYs0wE3WP7h64KqghYYBFWo1qOWsmO59hP3903xDTJtetu34+D4St2Lz+CFBf05JcREwwknRp0x9eqpacoN9AIpcfzQGXWHYm2hAim0O5zlMCgOEMJ0tMp9bRd9Fg5Wgi00lXeo9f4shMCvk4eC1fAvAjnprVD+iOEjm0DfyZ7XMPrtsmCzzceOzgoWhfloWpJcgPkBF8Skzjmwo44OBWOT1LDnyPboN6sDpx73IVGxd6N+3LCqW/6sUO82O75w7VSo+bdkHtAD3rSZk11TIdIxLh38F03tqCEhUZRMWL0fJifuIhpbWrg0yWc4bfUDi+YzwnLBNqI91a6cYESsBiUMx84wqXxZX0b8iKhntYdho+LcbGFjf5Rr6f1XF1tD/geg3lAsxTDLcBbchRONmNAabUasXegCAGED8KHeAgLvrNI+sPSmlMagbIPqr8r0/vHBtCwf989ES8kt/2Zb4kr3UtQaYcHW/JlP+dQimAy+oE1jUYCw90N2oxu1JvlT1EPJ5nyAGml4Na8OEwxdTQu0mVqlpcUZYQrn6JAE0oRNKFjEuNNuI+iTYPh2iC/RvC3A1MQgqEOpshU2SvFrPGh1uwRtzD6yLCM7o6jof86NbsqTmyX2rt0LpOXK8pZGEqm9hwyXUniS6raQDpl1OT/QGu8rd2nM/F0uWOA6eTjBVZUBhbVW6IPCF3EPimHdFG58+rnZxApFwZmvGDqxmw8nMVkd5rLlyr6cKt+4AsyBeQHQDCEmApGSCgNnCiaPmwPrI81OKjAJy/Mf4B9OMof4rb58DmsFc0JCck2nTeVIQDJwC9tqeF29VqCvwiyHgsS/t4jRQzvavuDMRNE3ykhIsOYd73fP8yUqob49xEvpWOJl3G2NAY0j+9BB5qnS8xefvsCS9XsmF9iE5OUGwdbR5B3eIzL+6TTLLnFSy12RwkkNZQDMgLM9S7Nk3QwbTxwnwUjKZ16JGZ7tvRQw6jCFR5mhvugPt7ckhojqQYOf5y3fqr4lYrNXr0wP8zuzqLNGZWnPo3K7KDiq3yrKOktzGW8L6g8Sff04nJL7f+PzSDUHlbKeLp7G9yLcaH3+COCBgOzMpJFY70DRWUppvjxNHj9wwFZGB2X3cPtROzLl5qpIqWuQLXz9tUMGo0phPd+a9Yi94u8V5bqabbegdonWeY6HJ0I08KU6GGh1VzidJxCtIIs/eOnvyntBXJly/G1Kq2MsL9otwd0Fq0VXjEQrDbSOJ1uBohDEISh83LHMVMTRCm6fyIwvcWebadjW7G+LFbZUCKp3s0+3eQVnZc1lWG3IGrWsS2+cTBDFSewduP2qSm59TXa/ebqXlqD0BEjxPRjdo2bbZRVaeqMI+MirNsJOfTA2XGdShI7aYxlOo8+1B/mCI9SIJf/AcuHTq1S2SPszVoGmfPzyLeONsknbOCAbFkxcMXdU1Z+P9TTpjMOafccVegCBI4CzTk8q195NeHdgjtLRaLjcJSFhXfITmXO7t4T3vj6d5ECqn/xOnckqWWxa3xVD4pcOKaOO82cN+t8xcHoiDVdF2joU1G4XEAq0ONAUlqNJz1GgmrfU7zbK8hg/gsE0KVlfzHgVrs7z4sEqYxJ7TpmB6SwWhjgYAYDzX28TAfaE7jBlL5zHfcLOe70iOZcpWdz7spB0A8dVtGUdH3k2GiRd22fkt6k8N1GK/RBIRWGfoxiCVBVoxGMvbx6Krr4tvmYfweErE7CNBPfaGu0ttapalTx5UAskFW7CftsDAuKXjJ78E+8s3aeuqEt+FmsQT05LuMRmxBNw9MaeQh8eY31hJeuYnKI48c9gSXF3zdeoHIDSJJ6SLQcykEe5j1uqdyPTe/gvlfXO3AyqI4SE4zQHOhULp5XmotYLn2mt6VM30KVxqSnGFO2bvCtHX5ukcyyR3HQUq3j+vkxTC8T3gdKITlwONUI0S5/z/7hYQt/ovVXUN/zQmk2aew2ID1waDcjo15j4HoqL6/pCZvPR/S2+z2Gi+2ULKNnVNrnoiphhL4nDQQTPDNsLnGixrZqLcdkx8E9cJwv7v1JHCvF2JlMBPoHDgOGXMpnYCt15SR5YY6FUSymFQTWmvb8lNi8J4jKoOuRY6UU5qtTuxNrBfSwFHcwXiq+lSUCLq/J2DqtmbhdmEVeLqq6R7MNWE+So47YwszIFqon6Fez3qNkubQHGOj35BO8NhFu7+HIXXHn7FpI/WvH8dhUVzkKSBnfHF3jnl/QMRVHXE8YRECnp/3DPP7yx5j9ePjJ40fn6pcARbISIqk5a5fL6BXr2YuxzbvLUph/E7pkcuc9HTbVo3FU+kb3pEA8SlUFQe3wnOayHLBiGlaHWRSJAIDkgfvGZSUpIGlW3IjefUlNeexN0hXHmRz9lO68JCnAAqknvqjgfRoYkhMYorcctGsqc7keEaw5lNiMfdScC8Xgph3/ek0vsEhb0JiNayeyB40C9A4qLOM7IW5lPb7Wv2WMYFIOXwg2GHV6NFKOZsA2RhbsCSy0BeA0mWtnnOTK153IFzUar+GqIXV8EKoiqPAm2ieV//MC+m+RbDT4RMN7adWYRJG84+kQiQROpsdBlUdXOBuOdztZ1lVwTrqcztSAyPldH5fjmsncTvIItLylgeKw6iMds/3JQ8GMfIq6vVxRJGuMNs0z1HqLDX61Oj1F//3X7UWX8OwUJOOSChWIvasdawoZyaYsU3pavA9FFG1NtSyxywUdZ3yMPEYL4u9bgm/cJZeK49BowddB9+nN1qXOtX63qUk7xq+2o8aeEMqg9c9cKR++tLZk/nPqRY6U4hvUy7v2a2z6fhRvY4EgqWAWxQAQTLki1dvHRvWZzgWG7JNmhndfate8N27fQPSlBdjB2Tj+IrhdpQ8gydPBnCb+1wWn8UnJ7+ZINDQOt3/cwuliY1MkiAfNqXS67xMNLg9G48JilHy2xNPFLKgjHM60HpRsYAA;" vertex="1" parent="WIyWlLk6GJQsqaUBKTNV-1">
          <mxGeometry x="-490" y="38.75" width="59.92" height="80" as="geometry" />
        </mxCell>
        <mxCell id="zfVKRkibSDTo7ycwS0ug-10" value="" style="edgeStyle=orthogonalEdgeStyle;rounded=0;orthogonalLoop=1;jettySize=auto;html=1;" edge="1" parent="WIyWlLk6GJQsqaUBKTNV-1" source="zfVKRkibSDTo7ycwS0ug-8" target="zfVKRkibSDTo7ycwS0ug-9">
          <mxGeometry relative="1" as="geometry" />
        </mxCell>
        <mxCell id="zfVKRkibSDTo7ycwS0ug-11" style="edgeStyle=orthogonalEdgeStyle;rounded=0;orthogonalLoop=1;jettySize=auto;html=1;entryX=0.5;entryY=0;entryDx=0;entryDy=0;" edge="1" parent="WIyWlLk6GJQsqaUBKTNV-1" source="zfVKRkibSDTo7ycwS0ug-8" target="zfVKRkibSDTo7ycwS0ug-12">
          <mxGeometry relative="1" as="geometry">
            <mxPoint x="-530" y="490" as="targetPoint" />
          </mxGeometry>
        </mxCell>
        <mxCell id="zfVKRkibSDTo7ycwS0ug-8" value="全面依法治国的基础原则" style="whiteSpace=wrap;html=1;fillColor=#fff2cc;strokeColor=#d6b656;" vertex="1" parent="WIyWlLk6GJQsqaUBKTNV-1">
          <mxGeometry x="-720" y="390" width="120" height="37.5" as="geometry" />
        </mxCell>
        <mxCell id="zfVKRkibSDTo7ycwS0ug-9" value="" style="whiteSpace=wrap;html=1;fillColor=#fff2cc;strokeColor=#d6b656;" vertex="1" parent="WIyWlLk6GJQsqaUBKTNV-1">
          <mxGeometry x="-580" y="300" width="120" height="37.5" as="geometry" />
        </mxCell>
        <mxCell id="zfVKRkibSDTo7ycwS0ug-12" value="党人律德实" style="whiteSpace=wrap;html=1;fillColor=#fff2cc;strokeColor=#d6b656;" vertex="1" parent="WIyWlLk6GJQsqaUBKTNV-1">
          <mxGeometry x="-580" y="500" width="120" height="37.5" as="geometry" />
        </mxCell>
        <mxCell id="zfVKRkibSDTo7ycwS0ug-17" value="" style="shape=image;verticalLabelPosition=bottom;labelBackgroundColor=default;verticalAlign=top;aspect=fixed;imageAspect=0;image=data:image/webp,UklGRihTAABXRUJQVlA4IBxTAABwEAKdASptA/QBPpFGnkulo60vI9FJieASCWdpqoHdHzP//xS//zKPEZnRz/+uPJ58nL8Zl2hj6YqNI53Xgb+p61fQG41to7n4eVcNbRG1fj3S/s/6FfqPT7788v+j/cDP5z/6/Ox86/4PFH88/if9/+/9wP/8u9/+3Wk+xfzPPH/9+cf2oxS+Pr0HRtf/ncG+36Opjv6h0ACGx+be+e/eMM0pENzC//KbZ79scHGnHNQU0MZrRDQjoWgt4LsKcVQDTXohtjg40w6i/6W5OV/4WguvMCepqqY1AErz1pNPqL1vk7aEGAALtqKPpiQqFITjzk0vvCZZh/aPqO/7CHkRD5LhpKsrjq5jYz/yALTG7y9sxPaP/Q1PzMweHQ+dvB6T7Y8HJIQ++AbfJ1rn39p9UPzMKbDaEO6LZhzWzrR2nhUuRSd09tVkleQ0Ufh82Q89QXjAwkMAHc7RTD/Tcell7lIhpElHEO4FVSfKGM7GdL2kx66kV7aXu1WJXApl+NJmhxg+JpKSL9bu4bvGAjPZrskW+7rb9KQXzg8cjOU2hy8HO/R4uOSOnqsnXTRY0pViHwWIX9aV1qmKgEIiXppGq2xJJZo/bYHVN94W6ASG1NfRdSp0Y+nNZgYfSAtsSG9wcov2CcYYif/XKsfeNgGcko2ghTxhBp26CQ5LE3x+U97W639eAVeDbSqex6ZnMAZHCBD1y8IFFmF9+rM8UraKuw5Fw4xqzqO9sTF3GtslwibsEWVE2sE0LP6E9EBGtNyLEBgC2GBRgFKY5KIr9iefrQfNn/2io+WgQ4l1RNuOtjE4QHBBukqU7/K40A4i4341SvVbZNHb0ePllE8ALKLf/h5mgw9apBEyf16crnUFVOTV/pycjM/B8Jd/S9RzYFm/fnvOeN/eDjDhhUH3FDzedg4pV1UUx//dKwgFTHVCByxW8pRy8l3aUfW1OSe6xtObUJsOUqxy3LoeEfsO9Ez/rBHnopYSK22D0fhSFnaa4mTZ5yv0sDYfQ+bmM1jR96UPTlKcd4kRz7VmOph5VJ0ErAXOskbuWmbwzqFSoBsf67rQLckB57pzS7Jn/jHXSe6dQbuH0uhZHHNyBh4Yt2ymQJqQuOK/t4mGIGggLeaTY8rkMwl95l0ats3bmuZRQ5mrlvSsLZT7ROVlOuq8WbNwYL7rtuvh7NT5LQlEJZ67VtQFUh3v2/kZluSCdb1nCYpapraIthFchpbmBH8eiGNgBhf+F3AVqikoeyd1fKrdO4f/9x5RdkCJqxp+4wZMvGbsJJd6yp+xFVwWcFgpRmEa6OPY11lM01bOtK/0EaPy76LArBfmlkCdp39Pj/R97qv+VMXDQms/zmqWKJuWjobykOlncDXDxgeVoLmljgy6yQlX9f2Uz8rttQioKQirNL28y5MjCt9C0U4S3tyL2xJGPisD3owVaLHfhLL9YmYWtotXnzpmRMGg438dlpmAbNzfMO7V4cAOVCruqQpICAPLkLONHL0447q9UEk73Pqanoo6R3D3kNQMFEUVq8uW8/VyxMkDEc0C5Gm5NPaXU8lIaVEKYXSnWlh9O/c6xv0Rjn+mhmbUwdFeP6gg9XGBMnyFawMr6lHAPjC4xNll/detJeWTWskYgrZX56Vk9HImM7orzNWqvQTvl0+aJPEBMJ14wHX3EGWCrxFstcIsnN8FVSOKiqDCd6ctOnoYlhHnfv4q0ptETvrAtjsu+tf8TfMJnT7dFdwsX6CYQO4qwqlGfBhxk7h96NO5gQMiOmuVu1dz0OAPlKIqjZ+6GYYB11it1U8zoNCdOV0GLdmj2LbcqwIsCQGITB7ZfyictN/kWLRrBPZoJ11lIyq0x0mX5H1l3rY240xqxX1K/j9NxCo2mxomcTB50YGyMEbhEJSeBPNn94QM1crqVXScCBrTn5YQfvgmQ8UAMGEeofPbA20ddYYK0Ei7b0SDIEDQzUohWUNlBdgCMUZnwy3zJCLKJVe77MH3IiMGqtjFdOKvIyvFLTo/3OwAirPVrQHLzf7HVZw70n5SkpewejfIL1RWLUXVfi+Bn7kEfnN+OjRXGdq8oDsmBAFDGpuhio2+NfoYQ5xk+Rw1dbgso2P5TCGTiJIdbr+yoF8nnYuBAyGE/tERGCprS28dvD1XiWVaUARNOFpKml1Ogyr0B9asXlmW3KVdFaCr5tRv4VH//RDP/9kOAK/IjNGsLRFlY9xVagc6619ELqkiIFS+m2v1Blk+Yf/i2uG5ws1mPym4aOLCWi3i6li39Bj6Ydzx9jwfoNXIriK3eUCYbUyN1uc8/JfIKQnfxQiGZPz3htd1GDyvheTN/50vvwtz/UwGIfkEyvQxksIKRiEBfPhDtu49ITmVAyb3zErj1z74RdQ+hwfUf+xBdIruq0dVQIY9mXAyFbWJ1pH5GHjzfB0VlZpSil1iUSxWnGLrhlAd/fqC61ken56peVKVxKvuw2O8hMVwQDiGoEfgwMiE84AKu0tH5KCZn8eqkG3llLRd++1AfNzzCb+RKdWLCSPnkyc40F/TYkoUe24O35Wdnu/x3187NUtBz9FWQWRFYrvxBg8592O58W4nrLytOk7cGe8uL2NPjXKmnOy5XJQ+dYrSbQ+H4NSLgcrymHjpIXw1ysGB6gl/wpwG/Sftb7s1PmrHX/eka8Rc0a+ttbM2xmj7aBil467cYeCb/NnNaGW9xH/YHlpsn1tV0mg6TtU9P9TjG/l46KXt1yhT04v0CmK+aXfxy3oA4pdm8x+iOTy8t0TpEdzkkqisE5MXLx5WS7tAxStElr2jav/Yngu53KVUTZfQeb6CwP0/H3CW32ZRxYkBeU44avvUh6NuPmJiwsYMt/BfYDCLeA5QEGGZH+W+JNDQipcOtrSTEKRgjpuya3jIy1l6G4pYMt0Z6SZQWBjWHkl7Ms9KdMrvkkKgceuLJdMxYeNJbifGkLZ/MEm5bIktMJwP2GA3rmTKkUayExv0uGPwD05tFgB7+FHQ47aBp06UZXrqmx0cZZ0ThCsRcVVaInJqVTx2v02XcoH6KmvVDT0f0DZD2eVEFYwZbJUzZCdfbYXW8lw1JInGcZy0U5YREGBeqk9Gi0921Pr2rsrZ/Yuar2bwxalzryH2IdPQZff253oOWepjn7Fix0Xxy4OOnDnSEJVBlzqcjHcHi/J9rea++MJTmQp/OdjG/nW13xafyUZQYOW5EBiFJcROFW/hLv4mGlR1Kwk9ljrbZP3t3NsnyJ9kZeE/wLPRFb/MY6xoLwKrP4MM6PVbgbcacKS9ZChSMakjp5OIT+WFGISgHKiHCRr0/OeNaRgBlpGVL23y5j2J6cnC44QEZB51CBwZREs36jovOZ+8aY3AaazgIlwBxkUr9XWKDGOd5R+/oBJWpzzBhmyUUKORRjVZ4ogYf/ZAW8mDSPD5CHNehWxrS5YW2jFmT5+eKldlrBhqbMrtiJZuBAyUnr7lnJgwoPO6vdmOhmfohrG3YvypqWojiONuiw2h/WlZ3qtGqOWgoqHIYCJgdXR+o7NdqWxxt8mhud1ilbDpt2qxzuMqn4rpvvSGuXiCKvUprUddtyzj5E0i/OFtPz7fixeR7r3OQy5HXstQEdLd8Fe4mlBBFdnEcpeDO2XrU91dQ5xM5UY0rx2zv0joPYyq8UuOozZkABInXwwCoEvFtd0E/T4YkG3jUfepauItivzXkJqErYycV9LrD9wLPoBAk+JbTqpO2YVP5+gYnkIvmlY001TofPyXk2Wo4gxbeUlMpeCqun10qBkw99BX2XvOM9bwRDAMXyG6j9gMUXm7fZbtvutkAxCR3VSg4dMWw4ogBwWqAmpkA8B+jwK+hxngtJZ6to7VutUU1KGJ4/exACL26zHbziODKa2tBmZ3MJTue1GYqKwhQS0kOp4L5YZ1zbq7vjPH82+lCL6hg29FDNPwb+kJHP+k4QX0R6Gl8hDMLmSHk6Fazmf8Umwmda6VsTBAv7R0ZvuI5CZQ1LIEJFKTwd40dmy9qDdUAV6CLgXdHfoQkqEVN/44SZUjJx9D99whhzG6+++yW5kUL81Fb1h44JDPgizpdie/Lpx5M3qC3eFqtdZCiPUyni4u86Z8kX+mHl4zYigINcQM1I5N8k1dtBEKiVSfJ0rOp+pakL+ZvVvb1mzBu87zmkHDnCGv97WV8XFC1DJEbsJ0X8tDbK0RYLp5DezFWJ5n+dnwzgkpFJAvsXmw+YQVlJenR77f1gto1GSPmLet6GJRtCthwlvAM0YzAkVtadZwr/KdCvJlRCW5UbpXsMxKfIJbEmp4jFkaUFUQ80/7CR/374DygGFwqnq/roNFexaM2IiL95tmyVRjiBE8bwv1LAz3/WV3fYZGaLhRflkSNpG+AQQVwDuBK6FfXrlhbvgnAfQt8qPA1+iyga7xkqpK9D3Z8qJGFpIoFsEUvxKJX5FKzXlhXeL5zrjc2or2QgxUSowr6ALn8PiGJ278YHaE2GfqSuVqAjQWVr2FoeC1y2UE0IBCSylCG+PyVuF6SJHJt6Qp00jM3n2iFTFEEh+qPKBEBj68VEvlrQPsShopmbVkoHCk8CqdotLq/uBziIZWZs4MgMiWNWSqDqAoFcrKwxe3aRRDfOLLHAh+tj9w7Nn9YrwwhRf8B5rnWnc/jsRptbXpQjQ4YQ75OktKssmra4TUUubjfgtV+3hSlngbKIcTV2lDASVr19XvKo8cp2IzdeNZZEP5Ycu/Tym+2f57KMyi1/qilH9wiG6KQb+FTXoUaX7EcWA8abd+ZvYf0qxoY6jcu4kzJAMNrLxgcqEbgryLiYlZQcEihO6SGMqpTfz7OEYNXb2s3BimVDAT4X+j449IIRUaUjy9r7Bwm+nQXxX6PRU1VIZoEg4TVQNUy8JFCfI4q2n/FL8+qtScRGujNhidKQq79a+unWgR6xuQNAWjbfvZ10t1k0xnRMB6GEwFzzanqk+TRrosbHQ4ru3J/rsoQwOg2JC73Esl4t81nCkwpTT8gXdUtlTFIuFwZhDbkST8UL9wM8K1MEqTQYLAqGOxQA9PadaGwTufIt8PSrY256zE/9Sgm6sIKcil8DlcD0nPwFStXPtm+efjP+GyHroQZdC/a6K+HEjBFQkygtb9lw5SK6MkVv29WnvfAfsB9W1CJWIYXtYCWLh9pY8wVDf+4V3ybcATObmrN18kEA5cIfEYbRcj6Lu/OuAqdWQrQ4uxNHaRfkMPQuRmwR1rPajmzyWUDo+/9y0+KM8uLl5386utFy2WuunAXUKhF/bgZqH6I86+65gSQnVFNjvJYkM5IqBvMCiwEcfplrBikz9ln0PySkqqevisg9cqMbHFhThuKFL8XvonEwt3+HL+IlHUweN9CwBQtcuGza1H3erU23J/VIURimTM+QB+iq0OLhTl3OgjB7fhJ9LzWEds5/8dWNBa5bYudfb8at30k1yBhfDy4Scps2fE0OgPzu6fogDjeG3mtyHk1OHTsdrnQyJbeAQgwQsBkXLp4uGvS+BOcXA0eKXNZSEDOSyB9xho6kXRsifG5qau2/lm5p3uSReyFWyATf0ZlVBram6PyCNM4xTrTvgtetVDJD4ybq7Ed7IO3UIZmkhd1MOLR6uQf9CdcCYvxJ4d8Oh0jAGgVHq1mfj9gQoa+EUtthKDzRAA/vk0SYVTaol6aFw7RtmgEwhyToSCJOGR/MOpUNG0fcc/KfPvM83cPv6nJr49TpDMmyWroJhH7jh1amm9SgJKa96UzBi+lbFBA4RSslXcfjKqY3O5GoPKRgYwcmyXfGwM7kRah5wwoU9RUdpd8JZKMWNCZgVTtG6VI/pGw+XVscxtd1WYv8mObiGecSQdlfoc6vI41GYJKFk1se8x0EkCxshL4p3NFJBnhWZHp+BjoLlIcKA3Qe6jeDkn1uP8YN9ohPGXa0CrF4AmigwkcUbCqnJ2Ra24pHkVttk6O5HBXUQRr98VDEGeHayRNgl8lu03YJp34qpi2sgtlf2nTu9AyzKInzsBxQhEIG09dVJ9Ov/gyzGpppk1PYPq3RDtwb9iIKikiKRAnbH70vEYNNC55HiNx/Oj2uznNoo2QuDaWTjRqszxQYVY/BuvJxlkqRrmR+B26xPE0WbwA6gqOaXZMa6Ogz526ZJXpLmWDkY5cLu8oM47/og4V9wWLXD+JDcBKxT1qklE9bwxlWPd+z3n2bszkmYH4fj8jqtKQPec34V32zsubATyRVPyi23855I26kqsVOx7JJEk1kWmvzF2huJO2R1IkP90XgXY5y22d1dkLl9FZDAkAN0lHScO9rKUHHQlTTRAIreX5ZtcOBSF8fH/zD8igVwI4AZKhISUlX2cXRWX5AZ7VOvkE6k8DV99DmbUPMFzmwY8ox//0rr6o2UYfsJLxIAkJsf9/akAGfbFLte5Dhk+qsofn4PC7QVU8GdLep9B5ULF2iaO4nM9qEtZStDYxfUPiMMEHZTfOdaBDNmeV1AfuemQZmAQrSom/2IzHa7HewO/JjinuaaxMz8bxgG82NM6GFmuz0wVwIvaujxPk6iJxI+4HlKJQlglfWuDDpe24XoJhCnotUHL1+2jIZcSJDCrG21Qgb3Aqt1U96zoZ5Oixg7jkzS5XWMDdI9PC/cRSBt34RLGmIZ1IgbsrLahmSxZp3kJhd3NXhQgiOBetVQRARCmddh+TikZaOiW1Oc6blEnq6/qPObH3ZmxCeP71zLIDmlSe5yYoF1rHP96/eQjO/MeNmHKXBZ22dn6vphrpuz41M99Ik0ZZo86arfdBBlkRQwSg3Nqvoc1bJkum16/+VId1Xo/Q95G7AHJapxDZFOXeTjpdFyw3t+fQe4GtEk2w4C3cYdNYA9xGgXw8HpOQaWvlAxH1zWASMTp5aSaQqoo7AVElzyoSUMJNsNy8rTrphH9NN8EbCoSlluWvihQm1g3AWeA+RXPGKrLcpqIwnXqMDdBuH0gU/Vph//RyWnKraz3F6ZUr7MvWlw+cQjfiBs75THsb9oA3ryMw95IVS16Q50qyMfRSJ7mKlhyEbP+moI56ImNxSoeQdu0CmLk9wBDNzGc5jeaXdOETW7NvBQwpBSbOTANylgxwUbT9Bokb5vF6W+Httj6pjazk9ZPvHw0A0i03aJIwetkM81aWOGGWMIXzINl5nckVKapw9eC3LARCJ8wvoXRfFN21L92k020pA3cp8yMS1RMzzvlJkK2GwB/2aHdjM56xBAS9jq9sVKdNEButHY54ouZyZnN0ncrEnOY9BdzEa5UynQ3t7YWSTFBUPwhD1vPVQup2XkjbidMH5hGTcIWkY7Koq0RL8QP1YWnjOWfHjz3fC+3Fl9YKSb68tLmc8IJgNMBpgMq1S/yCpLSD4/sbQXxmyolARj+bhCpmt87m2haI5KRuSiWauPs7mKPvZ3m4KObItP3Etn2r7ryog0KYOCvsbI2c1i9AkM3XO3z4EszUaBLdWxq+S6BriquKIccF6olAk9mtGzTgCI0pjKGqpc50XwLiyGJwG4bLsn9YkGfeDuZ5WK8kky+mYrhzeHm5UOZEKFbUFZAiBMSfF32Fz4EaBIXcfbe41YKsNez2W4Ntkj1dHhD8NiYe1oycdJrPf0Tzd/fl+zJF3RDV1PHh/vpvmD57euiGHCv1Jhn3xf47rZqkPPUulZxwmIVZ40HCLcRgHoUxwDIad7xmbF94kc5RDOuoDDKWsvlqA/CAzfXfmLDqQHjE0Klxb1XSJgPdm1nlcyD4HJEwlWkhYPKBJWV7Wf3DxNSMs3sNbncTU8VxrOXV0uE3o/vrdwOKe49gJAUeYasFAe10Pe1nKE/nbsRZzctxkY/+6h7Acf5yrK5B5PWJGXaVNccECTuuPRBKBrQvZ4ft1aWPhb6Mdy3Gvf16N1YqXvMV4TpUvDhID4NrR6wXGsWYIZjxBa04ycXfGsn9RqocJyFrVlBHQ+zT6PehhvepBjirMVaxMkST7UBpk+EOk122af8DD1Ih2sNHzA57P+MjEDZgjUUURuXJ3qf33kSxBao6czrjZ77kStUxhxMeoxG6O6xHCfu7Q8+K4lx6+UOFvoiGjL9RQkSb2JssRAasOI98WON2kkBjecAGtN4hfD2SpfI2VRXFtig7Fl+VwAyE+28jnBgDZ6egf1HtI2Vef6c7jkYaOBjolr76ukIwWRQebleaF9SPj0YWNm9/xi5tgz5m2iuqv3YJLY1TubtyRYNLBHQO2XKCtuibcUbTDYn9kqhDXAepVazpjRgx3XQF72ZMlD525hwlEJReFu3MHzl1xVGayFnRPGH6VWw+sSE0q7nZHPrnP8NlyoEikJDXLFLwAipVenaWloE8fblN9C02gJe2/tGHc8PkROmzjtYid20u/+1VKxkr7B1+kKPLJUNs643XrJWJrPS5IQ+CBr86ptO48caQGyJLqnOZYdsG+05RDb5gFeyD+3/YBEXHhIYZl4rdpX1dH8QvLqM/6GY1j4fp9RQMxAhDrnPC8pqJgpa5JjRiK/POiwm0vN9oOC25j0FdCraDXwIEvYLar/Dp3Xedt2huxzI/F63hPIToklGwF95VD9ww3yzw9WyHYTTXkqg0e3GcRPnpTO7P7yh8iMZHPRpw0tza3MgVhXpyrOW+DzrVvc+kWZji7a/431Ul26qPudQGXVFu3wxnN4fCioY6NK15QRE5VozeKk9A6QQXBX2g2e2p3g8v9TB7BelJASyixb6AbX9UXzjcz8D7A4ZJJpgyWiRni0XqF6YvE2imywFlr/cQfgSoCRcdHjjkkGwuteBOvCOf6Nk9T7WuUhdsIzoV8b2UwYJyss5CDBsHibiqkQ4d6BdgWY6+vnzbbS3N3Zc3I7obUPuV7IeRRof1QtpJl+7otAQRn1ADE3zmUsJRDM9jpnXDjvhmIXvEheQG/tf1wpuHO8UuAbujlueKYPTtMlZepyxmAsrBJirHU5SOevGaOUL4v70HkF9bghn5YVxnAVs+BSa1VEiQ7tgS5gDIc4g6b6PjlW3H+LLd8u53FoHNjk+OH7BkwWIfsclOv4TKseIqbF3mfUQtjU3+XnBdVJtY6IOT5CWQFmuHL6U5jcWLwkI0Ze+jq6jW7snYSMMPh/EJFyGrU8FSRiNgFwGRhQYVItA7AZcRC9lj/P78vG8GqkKf5BXfI4hcH89+1KqtIzSglv7WSZMVSI02GAv0QSVYltn6dnnHc11dNffIIIO1AjcziVyy6Vje99SyVo2TjEyvQ0kyrjWzrQredE6M8S1NWQxnHrDJDBrZ/k3KqpjFXE4L3bB6qFWJrjA3XQ3ZN+4ajxmBUPIuW377+uRs4O0gG0xod2Odtf2B7z95J3MJBEu8eYMYTdPQXMg56ZWYzY7Y3PYZlsHf7AUfqR19lP+F5Ck2DVPXeC0lBesbNYoGTjvdIhtVkcUlUhs6ZWVSTqeoBHgtfH/NMeup3bhkwQftCRWnGUhv8EDo/bwlpN5/BfSHMSCpinewsi4ZcjXmGEmoH7Ic0yCSb5GCANOH0CdhDjkaFqVnPMsTkF/oDt+XFF94bOZbXixEmhc52GR3XtjGqyJ9yKTPDD+KQilVB8AM8qLfgPvu1lGeP6Hz6d7wSllK48+xZvPCELSu82BoRdutN5njKPhUQGu6q5jDETq/HtubvvMFsV8rmtKt2FLfkWeFZaPEnM3leBLxyNrdeGC93nH9DtfYNXdlU+znvLXeaKArD0o/nBFzwP0f187s+ywxhQPRhVzGi+Lqy/qh+CEzlgo/rCiUA2917kJNScIFSISa69XfQc/fBHolp3H1ZIO/PLPIRDT9FIL8jVzg0Jbbo0mfLwKscwoYCX0lPAjCXjTq0SeHRuhFLkEkgR6rz3mRoezG4CH1088MNVtrdwqJGYbJWlgUk14OzmIwwnZyvPSgadDsTCmDj3NFoGCVZ0SyhmSOWtBkf7OlrLQha08z5S0SA0p7gHcwQ2FUWkm1gh6bKk70iSF7cGJQZxV+Omcj2Q/PyyamiH50YdLLsgbP2dJflOsUbncXHOvThloWYeeGx66by0VDXeS/KO3pGuwHFl0fHzotL/sGnvHdZ4elnAt1d+/DgXTc2DpcQunHogTo4Posaa4XPZ9sdh9fXLLuCefKpepiVUyPP17eGasA3JE/9xYypX01UYOna/CZLpyiidQd6oOxL04LvsJTmhYbq4uWm6OXLcIrTISOFd69wAaohqHTAzLuQt9vwdnB6qGkYDPhEeXKvIzp3lU5B+W+MFRczNZ9Tfe5cCsbw5sDTX5/IOhEnEh1RYGJFlTvgJk6TOzU06ULxBIiSKqiF8JyNHQcR8phOguKxLO+RFKGqKXwQsp8TzagZ5jJRON6sqXYR+kCOYteRJeyQWBQKEnmy+11gkc6CmPS0HsiczR6xCgRM9tT3p+6vYuK1NvEk7OoD/GHcQUOR+1CJzEaRWZTJONBEeLnNRfAbiI3LyE9pgCoFwgWpZRQTybi8ta/UHdTLqTFRFhm/P5n8ACkOFoDfbM7N9VWnZnnAgtOf5rmC9hON9NGahp5muFDaxwsFzD937BDb066cSch8a0w6CRlCffgU4RSWfDAUi6zho4NXOTMdR+jsvgozRyyYSEGnBVTFOqZGmaqxr3+cw9t7Y4IGvpx3SiABJgijXxLyHq6I80BzomPfCWsQPGjZisz77+bp1RWwSZEwW+ih8iSHCu/Cu+oXnd3n+FWHe0BpBIOfT4/uAPkaVSjwIPTIKthMduYUiBW7ivczNfVml+WlmT+4rHV6Lh9zjGuufiEXEcMD1rc3rVo9cZAjcaH+vBYfJbVeDEwNhx5P51pBVd/17UkXwBoN8GrJLEmBLEA62AZIpI4+hvGx7lSdbtokZe+Eq2aybro7NWF50toJb80tBUF45f7smOqIUrOvYxam8lyYCreLp8AihTj1j5HDZAj/6a8nyWxIgN/4gbk8NcmKk881/vRhobuft0C0oL533LB2kUWn8PYt4xq0Hs0pJACf94WgcrH+A65oMa8XJKywZN8BwyQ5QX62XUJFMHe+pu8MuKI38+Z5CgAvSMUAVYQzDTR0xS51bt0Y++8ns01hqZxmS2zlZI2v/xB0A3uyxxrvU6tP2iJslDAIHAL56CuUngGdXHfRYX6/w9tHjlP1c9WIX928y6RehmX6eKP7ihp3PFXqOHFTNwn026HMg6gqWtU0iek8zc4xkOiL2B5BYm5KDeLWDZ+PuomxgIunfz/bekcDwNaFKStegumTTNq+Z7kwp4/Y77e3fCkhGcoMETkPuqlvDeHfeO2VSxxN5qqlrfvpjxxxGcN3LyPZbaNfoG+VE5FqHAYQrBGpa5WvSgb4zn9cQn1qEhqn87D+HrxB9GRZ53/9Eh/weYGLuj+SxdyHO1WsisDi0NGJpI4EQT3csjuk2EUadXe4Cq2a8I0he2rvWM6YyOoFa6MVI7cQVeCLRTJlDIJ2F5l3oOqzNdTCKzEmwMQ0X4WEkLz9/KNvozxKhZ1JOtVV7nK3jTD9irRF9tNNfc2BXGuop/ayJzWiZArLQ4bcPn30OALyTLr0DkYlXIIDzt9J54eo3iIN6fI0qr1Xrr37pyr+STDs6jozqJsobXVH7q31Mm466xF6OxJ3ON/cHNDledT/KY0KglluGnnta6t3vqmWFm/BliI/qsl5xa2+s4rp5EQKdt56sSbFuqTGeexEN4cFW7aiM3mLy3kQORRDGC3QecgQoQ+sefrGw1vUPk41ifRPAWffzq0Xe690Og3YcFVJ8Xw33Uhrm6ZMBiv3RhFKgaDKElzFzTZyeuRjquKeCT7ssY3MzPPirT7FIiVoEGYHPykGXTUyBIfE29iedRFeJimmJPCz8qEgMp9nB2gxUrn7uO14tHAYBAlFXTTthekT86QyywIjVMk9nWtBGQ2CqE8Hzed2LnLSPTFv7lXqKstv43YH67sZp3o6erR6MpB3iToOi53rMJuKlcZOUoO3VowGgB+XLsp0Lem3frtFnqK7SBXL8gm+TA84OCtWiHMZO/DcxaEEuoDbQdZiVPeRCHPRlTNEptjHvfN8os8vdqk0XKR3FugrowvQZTpZkeUNb1hnz0Oq4h2JP2U4GfsfeVPvlAq5f4JJNReKkCwhJnc0YOWmFSK6O+eQgFF3ZyKHdtJddkQDAkTQmPJVqnpranfusc8Gv2mi0Wl+TyN3q9fRuRpurvhQnRa4rwEnNYLbVUXdhED6QbFvVRqvo22lvGiaHF6b4Y3EJXFBAtp3qofp7HsQCfbPx7lLXEmSg06Yf9Vz7AT183OQLljcawDNAp+byqk9kyZmtbaXFTjOB12mAZ2d2habYC91RXOfjF/40MD1lBGr+YDPfbS1/bV73786lm+q1SbvsC1gBdH2+K7apwke5yKetVDCCZ7Upy0dIEkmWfKi/Ei9ggjeOf6fqLscSUj3285kqjrKdNhY2UhhQ6vidzgSlrZViOV+bmhq73IGMmrTV6ee/egalsOhElKo88pZX3Aa0YqSz38JC/SS715UO/ItjnJ/cexlj+UhMPFCWtpdqUZOOSxe7J+/nu+f9NCKicotpv59SiLci27qY2Gp8fNbesq2XFMc4Ej1l+0lL567G3jISr1a/WMYb3Vz44X4UZP7PbhgQ0KUloJOCZ2WFEydRCNGA2J4nvQkamwFOY5NJZx1JnoxNYWQfL4uG/CnytTDu5oN5RQIWBHv/Tgnp8ox7mMZent9tH5uB4Wwmrmyi8ZLyN3+19W9lrF+Dxe4ioCpmK6vYWAI56Rd8/CyqSekHtlZfTi1ytuy2Tvy2aBVprdSdcJmkB8VArxd2UswkUKujVt20A2yk+528AZWYwF6fc5A8/Z93j8s8xES+5EwWeHE74eXFmxHq+QiXBS1hk5wuh3pxoMEOT+9vrZDnr/eWAGAbh8GlV555lZgO4vUmepYs1C0XirdUXAdMcc43as3Jid3ox55r2y99Mze65s991h6D+v+LuX/saF4lxCRWtzHo0og1x3JrVJoOq95O41HyShbJZF8VAqBhN1gMkxm8i48JRXqk018b6yRDPRtHOJZ7dXhn1gZbcVl1C7kwWxKayLjowBmFS/MBmAPiOEM1t2fZepHE+qE/K87oShvprbgW4nTFVvd6wr5Nsk7ygJ5prrkoiVL17tzjRPsnXGIVH9GhJJDm+jUS9GmR292bQvg0gmwb3RQTMEtxkidcuIMPWs6NUQ9efIzi9E7dKyogPJEcRYx3kCwZEFsKZbwHpuJ58J00wcfrbU52aqF1phVtIaxqZjzIcoXeHxP6AngKFvVHQeaLH96VUq7V1JEepUVQpXi21jV65iXCYW7G/sSljwJmLOfio8t9SF+/F9nunrOXBix8fndgeq3vl8n1IpNQQKeIqH90VZKlXI6g+vOi1diqU6iaWCNvZdbKyZemh0LZaHb3PX00ifQtCvjUTSYiO8TLkNQijdzmCzzglEQRZuAkU0Qa2H6xt2AKCbxZEqpTGBkYu0j+0eyEBxSMlCdWUawyciQky5yMjGFOdAM6Yb4xOSjjiXV+4ZKA/n+iiohaCyzdAVslbgXFOZofa14dqKWxbe8K4+IJVXEHC8xivV0AO3JwDgoqc+NutaBP69YP0Qwd6r3soaNMJTnywlWBiCGgqZmHg1Qv1oX5uU/Tq4g+qX4q3NK8c1U9FeyPLlmUP13bFGj77eWCit+6tYIVhRIiXYzXgDlWWcZF3+M6+ZXKf7LqB2nIgOshVV9SEFHBqiICew6Bv87W+JLeg99SM2q2pJJpLnG0T3fEiESH3r63tBiR3PfKm7D2wpvE7VoiEMkaUbjASProcUm8mbSiydsSiIetunOREo1pxaLbTjp8vco9gNRE50nrX/9Wt9lmpoUqSgw6GRAcJqIOVtxXhJ6NUGDLNyKEG4OOoBH/GZHgP2NoLHE8pFygamr0yXjw0+/Txw9b1/0PL/I0bB/NQQf9yLNmTJUv3FhRuTiGsOm6KvGp82ipTYrbGAtFYbLxBf6k9LvY6J46xOfakUWWMu26utjn7A28aW9Y/YBkGLbq7YT7leZIyynuZHhpOU8Ek9QSbSDEg7fMDK1YK0dhfbGiHEP+XeqRYPlsvRfNMUW4a/+ixcwDCmi8Eqabm0UTB1TQESojtiFQaKAujKgyRYZdSnci2j15x1iECzLReb2wIpu0PlSkrT2RhoO3SEOxgtG3BAAAWl/OTBYOu5D3vKA+pFnEujc1ooPcQ+0dNJdv6wr3YkWcZ+DAAAABMEwoCr9qOs9XNSaR3h62EqxR61bLK71RGD/ZNvA/luAqwO/6GfPTxCXPHzmFD7SuGGisWcbpLOb7SLuaLvmeBwvCnc7pHUo3CM0nnkjf0qsvXdBakfwmzswMZeIcYusM0KIPp26mrDtjO49O2VmymCf6v1tSe4u7l7tOv/Mi3vc50f7nsU9GRYYjfU9hnhk4U20sz674bBmjfgbRGBcfzZoikCLB9hcNzgq9gkGiZ970JYz0PcRE4QZuqxOqSFJcJ/r94IOl/FR0255254we6yRcSFYXxFU9b3GaDQjn0rrRV5RDMN8kPE6Rl6um3Xe2nZ/SIdjy1v8WBtkLCTuKKyu9Y6PwdKTHGK0SKrg8vcQosUW0Rjkn+47TkyMTnCgYttdlkxZm8t6qT+1mcSzI6ALcs4NmT//xsZBq+IjRSuhZnnDq3e/w6IbGu0LYps7BDZZu3dAvpHPfO6alg0w3R++ZxXBdrCEd8kpyB9omfl/sNtKqt7FQcPYCqCCSGdonDp6mqOtdUCLe6mLKxO9IpBo9BfZb8KKLLOjB3d+WWjtozL5eXibiG1+C0PrLDhcNm6N8SSDGs8aV09Husvz2zChKQi+ndLUZTP+jnBhurv+68vTfYkOo3idSnJU3T3FYerbsBC3Qqgw3HkyZVaeJh0KQcg+HYrMaCYma6levhEb/iIj+3P+YxCMsaa1t2py+xlknsPO1ftTmKclsWckIhEWpg7i7nC1UMEljquYFr6auclkltJoBWIyBN7uk3JUUwA/qpMtEK93yXz4RBEE2OzP916vgSBOKCXR+hBtlaSjsWg7SiUkWoWH++A+bkjTShZQ34xwStfGvoIUjOgb4JfGNXtMzn4+VKdMKNi1ir+T28DLKQcNucIrgrGIP+5T87MHtI5IynNL3scNiaCLVRopQ/civU2dVmloTmZ7VFM2giM9Xblvs+O8yV+IIYWnHTEVkSzlVzGgGD7IU31WiAsVhLlJfwujl6jKcmi841woryF3V1x8KHQzB91Jfwzej6OiXXXQr2OQ9vHFwuQpCKDqYyGGtTrMf4Kon8hixOvmrUUpc+UjcGOMgDKbSO6NIP9LEan97U9W8R1/F30xMqE2TwkEroh7021GH5MtMBKK/jWpTIJkcoBP4oIdX48g026kZK1lFrPrZYwQqJroXq1qLPp7Xby0XVNneAH6taTy333s7Ews7YWw5eLt4Bo/jmwgE7jIHwiOukx52t1a0RXNsm351XGLJ/IKLkG69UXlDfm55NouoeRCe9nZCThQS7NxnefLMKOdy7CyPTf0PAVqov7VfblszDBgtEqmkKYAKxtoWL0Y2NbWlc8xB6/ZfJEQNjw8tTYRNC3y6hE9cmEOXwnhR7298dLXrhmbip8RfK59L48CdH6i7k7QmqNuW4JqaQVi1apb/x5bO55A5KlxtFePT0HTNK6pmu8M+l3H6QKvxVm5rgD9+wJrKbQTukRmsOwFm8y90AhJrDYs8kcPxzkW2th+JJP+Rfcw/WZwuYkWsApoK8nQebYNDpFuIyNzVcyFp+Ocg6W9qlN+8hFB0TtyTGViML8EoVj9M8XKA66q3RrhqTwmS/onPeASw6bJ5FIk09n8TQ+L2nhrgc6cGDM3PzwYNrS68Wc3smwXSW/TybzPxwTy8rSJcYO7zQays0UvJ+91kTubrDlD04Jj80GWrHr7qdNhl0EiOLHG/KQZ0TZppLHYiRna9rwdW8ULigvhS9efdG7/TMxUJfUYVGw/bEyR2/Ilt+ju42Xqc3AxJFh0Jn/9R+3HDfwCObWE01U92Myq19STgSzosfVWfwBcbxyWEPYkXrIANsQOvq+rfxnNiM5fiRg1yunwst58GKi/mQSfbsphf48B+6hcrwy8AjShGx7IVVxbLa/kKZljMyBQMF/2irgE/gqGa7qypqSCPQ0e37KqxYNflDXJmyrawWrKotvUo66dVgDS3FRbxw9FnjLIKBsDN4VI1guHZ1n+/6PIWOUN2mdmCerdgWmHjdc4ngq9IQ5MDF5j3qxp/sFVXHhlGq738ze+oiKS5y/zsrzEVf1QEFR5x51/DRBHrFmwGbcg2pXaOmo31kA/DkKZwgcTEVw6X5PbxmsJm9ZquKVFXDkkVCq1dXSmGpixweL+QNFnAVokM0Dwu+lI1lbAFloTUlcODpWVIeDc9SOtdAF5cVFYYy9cRmzX6WlfbogATZ7xyyrGa3lUnymPE6xRv6evuIVYG3blT2srbUn/yqdMHKrEeVd8G8ja6jvhYCbqB11YtQF6WLyyC33TXVvl/FQZDiPMJNS13d50Oyq9R0J+DDw37witDlTl6C+RtVTB28LRdVGRnACZgd5Wbkh/Q1xkepr8NWRPEP67NchwrTQbmQqrCwVLY/u12+5QeEjscptSuubG5k2JbCAu/D7Mw8IJLbdHAX8cEpElv8Z2Rl455C+IYoafYsvbjrdwz6eIok4PcKp+mgrA0ukJAWVOwkci3eKsahVkYl84tYnY6vs8AnzhvUeCzL4yrDn7iHaAOBK6RtrwM5EZUJeWXvuVV6h/ldvUhnjnc/LaGW9zKhz7+sVAWEhpSEwwmaQ7CfuKdFZECyccQFziylfOI3kJcDQr7hqdk/gusNZ2zeRyZjHNg4jAswEH4KFAnpsrUp2jG98atn1LbqiqQFEowvEJsvGfkGXvi7uHghkHc0buN5/kR8IOML5gFdQEId3PRd0mAaXfIvypRI750OXEJSG9fQrFpRqMulzqB/AA9mqNODvGdaKhO4/A/dlQxi4p34VnFwP2QDiPubNHYAK+0Bqim1QXWB8bzbEizZCGs2YCJ+Xd24IR4rfZr1bIgJBXoS4dAxAJVslEsWeX+xyVJf9BjHnTvwDFCiVKK+dZY4SzbfouWGhjh4siLTaica74KCsQHy25DaZSbdLenDvFMjmVqGWwRsx+J5pvfwF9WzdHU7qB6oas0X6J35sukHo64oXs9ix1THQQCaFkl/cZTTEPzDCkLI9Z1v9Dmpre7YhsXzxPqSviUnylGw2tuTdtp/Psln3GKiY1eIKc++TeeXqFShEli2tbEtyJu3tQjGkmA3xhofKHrxDvkOR+Mzgr0CyTFD7akm4DrMOL5GUuGGba4kqzzs6nklJDJTIbkB4qdI1tCgFWLN+iTJU5oTaBIj4FzNOeACdrIYLCU89G8LK73gMGxUBqxihFL+CBFlob7YVosrufKBSw3WBQOGDiv9skWRTaFkFuvBbHbA6XP98w1Iem6BjU8pCTWFyOiRhS3ZcGqAbKRs8rQ6Tyv9ANl2h1On2AZfbol+1kiPhP8EF73t/GyEhEYfpGKfnkR52MnMOE74UI8DdNZgAgA6xSXfbcTvLWWc1CKdHVyXp46wkL1/pQn85Y65E74vHKnPoZcEo3ziPbyLmCFEWrqodVD/P8weGfjUQpZzfePyxovjN3CFXvmHvU80pZhCo/ZmLy5d/njFe5BJuU6fSmArIV0WBFom65M2HDEcgbfYfsmw0qAlbSbz/Tk5xZlwGILfB+cBGsTtkWdEwVPpBlDMFZfogAm8vGhHB+3s++31ZH/m4qLBkgprB3xtp72URmjEs0lOtk7KNJDe0Vu32cZbwsIfjqywuX+CjQGxu8p00WLPd1c+vzm467I/3CtCl2cMfL4Q/jt74SrHdS1QoP71BQgvjSZSi81QWA8lvDPaVfHqjTsZupX9Oqh9adORPGjZ+CFnQQJ22pq0zskYh5QPbPYfi7pox6tJoD/bQlnJBgd1H6bsan7iiQQSEXpHpqBO3vH+vRsQ1CCP65Gyd07gD+K/nmYDpokhWilu0cKyKWciugezFPcM4krN8cm7W3DDv49U3Ik+IfhbbkwXzukagryZZC2YkRP4TmgshyblSEElW+Swsva54Tqna2wFfrOZoYGjgEAquq7fC2XtqBtKFmDXFRTgJ3amv8yfZGvWzs8V9n/3C07nrHjZ9z4SLy2WdISsqrisMlKRVB2iurdobKmJ9wsLbeH7HyEymoHTJLnbbobWOuMKOhwnkvomn0dyRgPjk3PdafUkKxqchToiyg1vghbnB8nIG3PLSoSppl1pZv2BpVDf9+WxPDlLYzd4cQxc8rjkUTAlwppXDeAuxIPPR1I4n5v0GmTRRx+gGI+mnU/2WIWwCV5XHzYh2FZljWqotBDOISGeZWTEq9hO91mjDZ/imweC7MGi7Eh/pSWHuvaY+BximbUAHj32C0DUI2tFPV1XXKC2avNJ4nkjI63bybeU3o2Uj2KK80S+5FOQYEnQmXmtRULbzAXxl/a8EatrwG5B6mH2bQdn7d4DP+HfFtmNHa5REhHgFP9Cabg/K/9piOdqz/oaf9a9pRCEJkn0kuuyw6oZy7KelrSJ4uCPcAaKImg6e0IvFgM0DimmVqSzmZ751e08ZJBt8wooNlRT78lC0kvuUJtjIJcWk5UsftDmR80Y8gc7k3vgkTBQTqYUBVx9iQ948V3uNdwGTLpvNSlSDsGxqqLZdzJnZWFCNG9Js8FoCxBia7qreHq19ayGA/Mhlw82cgd2h0hJdn5kEQf9zgUkOd2K2xwGLvE5LZq1e5ebJOimbU53EWAMEqYnORxivo4O8jZyrooHgAemj5SuPjis8bY25sRv2C8yqttjGMvYeCp/Q6NoOIiFHOcV1Or2RTUBCi/4TUvqUMPQUlNZK+EpX5nxrtKx7cs9LKqDiKFcssMoNH7EsMN3fJ73TNICKxC1nEnaRywgWkxHClhSX9pXVrs86Jhucq3f6nQp8jR7eQ/RsDQWfGz7tITRwJaYqySsIhWABRx2djw42TfwhlfA8RXEEvB3TKCc2JNJ109KOG3E7Y9FwHsOVVOAbnbrwEKWXiCXUP8A4KiVek8IQz5DUUmu91v6x6sEG9JG9P1ADKju1dhReQh1sFO4wklMGlVPz7xIVG5acWqJTidToxHbT2o6OU0XfXAHKEx9z+//LQhqUTxzx/0qf63eJFftjLayMmDud/5+Yz3t2cDZcdElCtQEC5X+6uMwiUzWB6eqmloG9OTUwa8vcblDQmXXEixv+gWuFw52lPdsneOVI1KnVf4qyVVR4ziqpiY93TEK13wIA+owyE7mif0E4CMytQ9uOB2bRDAyM4rpjwMb7qxlXMy1igD+bvfBKTWlBwJIxyBUhN2mcJAt1oOnn1qCcOjEh9JxyzS7kanB1rUY8wAsKjUonpH0ko2tO5yA7NnLlPVhe1PVdbjfvT2NKH1ynbpOyjQZuJx0IRl6Ba/M+PtV7qCHHWhj9Z0B1gSZrzVpXgKgzzTHNpJAiQuIFvappTFffkAq2Qfhfz7u1seobWl0ZAxRAm0JnutDlkRWthUG0nD1X5UtntIuMDZHbPhAuyCW6yPwxwOqtXOuaZcYFtEnKd7rk6NRux/Ji7ASzpk/0w1cZQ/9JeND6BuS7XAmyh/Zm7pFtJzowdIr6R9zoo4XHWO44Clcu31vWRpehWkog0VC+8/JwJujAvm+L/xZR6IJ1ppmNYtw7HkCoOYsmSp8l9pf7O7hoKgP54+MNEVZ3wsT7Fq4nsQcrkLSyaBH65U2RqxA0capveQCPU+wHGyhmqYR5Djx/A+1zZaoJS3pOkXPSVZ7qZ0kWjCPVuNb9X0yA1A9ab+BEqEaiy1T/uEyXAM8gNCQl1o+MjxYBTp0IV4MhuwT/D5hz4Itc/rAMZMn2QIP4l5ye3xEyRDuYkWqLSz2nYXZF+efMMbXkLEv1TXYqLDvmGUL7RAB0JXrvRjUa7PmGhLyTLrdosrKItN85SzhrXIhjgmv3Mh9ZszJoTPQZXyYaphBs4BHSU+TDjqmlewx4gVbx2X63hQOlp4jBVgd/apdGv0vm0iU1jA6MnBXfMAnAVIhz11icehJSA8hYI/3h9hRlRNGPgP/9HUeiDOqLIbs8BXE3GdxZmLFpuXGxJ0cVA2uGuxueF+waMkQnuQ0sayTdbxqirswiOM4cLbWamzOr7ZCyroS+ki/7cu4EcJD8RKOMVE1oMJnmP/aLBPZ7akACY2SnQHYoAAHuEi998HqZa43Px/NySWw37gieK6B3gPAoo2Y8EydNPT4hMUd+xHV2ESguxyEFv2CibsPmC/+AqGVjNP5X4jnPF4vlmc9GoXuzh6tdyHYO3JrMMi4FTG/wxckCmP68W97E08zCSFYxqBA/o6caQZV0uM5rW8BIsiYIv/vtUqLoihhIxPUkGEVU7fu2bHUCBg5M8R0nh1L3vRmnNLVD7pjDuBODH/Epp/uYyYaSxIraqhVfBmEnJYdD4nueQSrRhpX8JuA4/Bv0xyJwIYqmb7yl4q02BcARHkXq2AOXfW8NAs+LkZ7vOq/QLSN7l44bexdC/m3F1m+r3KxTbYTHUuSU4z2xKuRt3eSlt/TxNhLhJjJ2UpqoWXOKxn7nyqHhgvwghb6d5OOXjLIRMoxLmDq6Hwg5d+FksCMWwh1wkVtf+N6bAAkBGrJcWoYqH2u5vvAwyiFR30PNQkmX2fwtxtcnkPFYyeVW/GJiMdE7B9YnI3pgbZJrTq0kscA7FE86bqc7PC5W1VyBeZZZndKEFX0ICuc2RqbIcd3NafU2Av0KsfRHRNJXOR+5Qo8V8UvD5cnUj4QjC/6NTjjOYFgyG+t0MReVsjqTNEFgW/oVKZQ7eZn6HhNsUuUD0c1z6wh17VzJKdgUFBuV4ygAU468Jhi5OCLoRvwDnMX+fUWz0Lw1Padnd4HsbfduDDGpf194gng+CRobU1II9IikOFJhsPV+MQzzoswFPzAC5x+gsA8bUqWQDkX+XUxKjaFZalhaaUrIz5eOiWMcI1WUth4kks8to0YHSEHi8ED3uyot2L0dArnxe69kRYdT9G0l79u0XWsLCPFK4JGIsnU26WrT8OdjCmkIEhIQWsIBjIZk3YdKecRMgm/NYIjWR+kYAPA7uS0p3I8v51+E4z/85W8Rpp6j0UVJJQWJ3PYow3WxZuMwLe0zfynHhtaUDBUD2MiIaaxXektffzY1ofIFnId0IOZZr/APqRMIc7CBtdlP0FK6NsdMy/HH+qTulrSI4J8354ALyUur4MS5nBeWTRL7/hK+8PcU3PAY5sDZzI2rRGNpF8UOOjUHuNpD5ZSQ4n4ohIqwsV1JdAmWSVsWzYGwolTJtce2rUFVwwEwV0NOw+IoglMQHQi8j9R6PAXUUEnYyKqiyZviwXvBzKhxN9xHv3hK/ASpw0ocJyyWOYohJQewOqAGk7knWSprid+rylQvl7cLPj+MAJqCbBfo/yGMO5GQSZUw5F8NmHTX3pK9kmh/gQJelG7uE6gfwFsuSOrZAeLhn5mKiXYq4QdBGfWUKMwHwzrun0uoDU9gD6M2ZngLEHHE9wJThgYat8xZ7ZjLFq8OZo3Sd0U4pGNCGYmRgwfVn6kAsokaOOVPT7B+7vKakvV73iHrM78/rIwSIcghDWvjybxJSgjY6KcTBvngdiHMC3g/ZLS5jsKvO7DVDr0i/9AQy0YsQSENd0fhzHjNOEVE6qcqu20KV9Pwd73vfN1OuXBTLwNVnJwl3uBXMaM8yCS+DfXqjYGxBVU3kfJxYSEqhWJZ1AkiJfIm00LbOA3c3EQlXh/dIoY91hYxyFK7yL3jzF689PcUnw/GpaqFpsYBu/CI4vYoQ/3ekc/tmK0ECGJ5HkSsQQRdMMpcQ4o0HByuf76GnQfFBmrqnooH36PmRs8vt9EYqtjrPL4ahuxYapXAAxGvLu2seqEuEmpQE0YWDTzy00+VjOElJJ3dY9U9dSIAnt2ZKaAXCu17IzPJLPFPUs/5fLKk8ysHe3Hy5jgO6AknpIlr+kiCVzo5sKWSc19s0U/x2Y2C/gs3lNUreiYDWbUl+6RKt+NPDQSOZ0qtZdyPjqfLepmMkqf/sfYwj2ecpJwfGgEZ0whtDi8Rnh/csancioi/OP8B5rM0HqVckuZyu1w576h7hX+qF0kgWHHEH8uESnQH0+v3R5fY3hxIzZAlTriuxQK4QA5Ku85N5X8GngDt3Rk5BLY2ONdf5HawclfUbobq9HJgx0NmWUkGXoydsh7tNO9R7ihcwlCzUcY37TYRXPtc6Vywtjl2KR0yLY0MNnCnE+rRKrOphLPca8OHSc5hWYOi08c2LtjotsWLvrBqqaD2M87fRQClnI8bhgrctJ2dggdj4ROdCI5ZjOcTTpdVP8VTaqDNI6YmRKE6lQweSCt2EF5B7xnsp3Y/vGvuLt/w2Gx4N4lWNMgg0jzQn2hBQ6DZhYds7SojnLNFUE4TlXw53bk7474mRL37pC7AIXnpP2iNsDHgDyYvpg7Z7/BF1hqP/kVT2mqmfOJ3XdG+MhK4AIuqgvQ5XuhaQTOqfhxNk/7diUvpODXHhcYZBJ8Qw5FSP7hzuYdU2JYau02dGu+zlUEa9KpA/Wwy+G1Jiys+y5xqrXtKdRwBOzEkHJzt4eIaxSwN+XMpSIHiVUtoUoCtf15Jb0oCrPDwkiyguiVVZ0HVFklgNdn9tAQI7+7/ruXV28nz3H02oRiFkGuqWW0yiaZE3Cii0ukGZMMxOY0klcnhIkVQB/RI6mocfqmOEJKQf4/hNWi+f4sp7ZuRdp0CXD6kTh6eOyzy6ni+Xg9HxXjJ8VpqlDzzHpFj0alo+puYKm/EOG9DTLk2LXm/iDOglQG6wxoioTmf0YmApPWRljCMNIOuIeR99NQyAULSccv5Q+t5NGtYOQDkY2IPz0ngUC2DDl7EdSLIlQ46b13gxk9NympGIoaAVBDURcln1abksCE1Vd1SabKuTrb2KYKpRgzqt7Gd38y7O8ZEtlTDszMaUOtxmSN7Ygt4M6y5nUOO0GVp/4mfE1cFEB0xu99k1WKEaqULTWybtONSM0pYaejXu39LoBZw9hxmoU7OxGZ9gbqegFoqOML8i5PI3CCK+Y2HZj3bVSB5Os5sGwYZeMS5gnc7vX2X9wiWe1HXeyzywit5TL4vf0ccrRhdKjW66096hohHMXTH6e0aW/XG4MCwSPatFb9Zlh3fvG77WMeRUlP9L+H2ZLbtfDwJNbm6nJkfr22hKIlc2FSJO3exPjqc4qgx7pjj0ImcIPGI4NC0/Tcuq6HRxRWXgbeAuOASY0uU2a9q/cn6OOJkC/EQF2xcPr8Ijk+KqpcxV35Qk/efZcW0xiQ3dRzW+vvIz5Xqk9aMpgVvSjSsbb5nVxA1awV1M7IBPgFHVFog+fZ+PiJBQSHd7K/3wo/07Yu0M2HtC32Qu6uBKuFMhftWQGkbfitQo3XyhhqzW21SU0X2p8AafYgrq0z0aO+xiDZ6jnwtVrpvbbDeUhbtSfoQIwHDZIrS9EQehVvL8sLKCYfZOMeEx4W0cWMV+ZgrJ1sgxLTH9o++weKTBjzGutVUjwSp3CGBiwrfEPrm4TyGVzS/+nATciFDhzfD/c+Khks1u4IZkg/wT3w6RzfTdns6eiQ12xJiDalxf/LzvRW3jdcgofeTssznInrFdUttb0LUa0c7VNOCz7Ky9YInYxH6CPPUnJ7Aiqgj8wPB0lOEHlKn9PQ7DB8IpF57LMOGfKXY7qZdDI6UyTPNc7xPHFxHxyPpqGXAv49cPbsJUeQFn+QS8q4XYOjlfK1/wWQg0fOR/VnYyKE6Zy1kmABm4xm8ddyd0PWWIosYh2wITDcvTuKfnI20xz+7keZjGLZNtMB2qL8OL5iBZKTqReDJaYFppkb4291K72VqEzhm+YDkiWeWs0i/YNtB/AnCGUbW5j2OkAWa6XL0c3TfufFo7o9gF3EXqIJYQZ+6EFSa5b3hEXinlSEyVhdlZBFwMcsICIAkfq01gP71NkGOY0ftAKVAyMz6HolXwuET6KsbDnQ87Zo6F0EYmvo8OrmrurjkVND3Tt2OVFnwzfVQjZ2iovIznKLZuxEvrh5xYbD6LQ+geZumbJ5rdbgtMVsmBLkR8ai43wJaskcmEsPcO5/W457KZee6JhKFYHMwAIaHkF/nfqP1g4EYxZ4mLvpir6O3ignSVHeAYJcQll9CIwfHDuxzwAkytZOxBKrSxWCpBJ1TZx3Jye0AUorW55WJal7u5s7LbQCWE2zR5FHdTrrp7NOWVz0dlWhH5iABm1C7Wjyj2r9HPa9L3onYxln3kBSyRAa6qOehhQ/vDPxIZKdY9lHl3BOB8hQVSCcyZhizbgY/BEwoyvFPZDLavwjd/l9gm95hjttGjFsY8MHCe+nmP2WXdmy306kwr0d9Y7cpI3K1MUj3FlHwKYPGsKJFxs+HqP8vrWIyIdeselgHQxRbNNU2a/H/MScXuSlswozAXePmJsPXSRtl2GbahM+sEJoQbw6XUwlWdlb17AYv5HV15/25XtikSew9L8We4elBwn6RQ1ET3GOhcq3gWXD2FONduFkDQWbjC60epZktB7iWNpxNDcDzFIs54BkRG4SG/tK+YaQbPGK9yukrhesiHfrjNcTXC+W4rCo863BR1lclPm68s/1rzjiAdYDq9IMUomU8On0ILwVbLq1U6QxP5AkSmk0F2HkUh14perRL9FatVRaO8G8/nN2kHdyOZnkloIPI/7PODvJJUISE2mbznqJDlCFcecfWaCn8s7ckEsZdPa/4Dufe2qgOTpQQSJGGHFzCcBaAMWkTtRfXS8aiWTmw+RYYNYAAChWWWAYM6Q2DQA2IVdd3W09pQ6r8gRkW6ucZXenMJoOa/MLGT/HHJKCZwzDJjtj8g7Zg2BC5nYhNjsGax7/mjfkKwWflBqNZHacz/5e0bCMZ6dr9xxziaHs+RvXTyt20Wa+xddhIovyqoMOKWxqw/DvBIhrv+NnYekQ+jVU61PiAmR3sxAqJEh2v9ROO2j1wztk3ZmWrGWNY9qjF+itTAOelp43knRvPWAjVf8NmW+SLd2/NRszxOJjjwzkYhzM2hfzinSZEuu9D9Jk0tbEB55VP6dLsH4SmhF5XfajiBRLVL9W/mBxP+zjdUwzIA8WcCK3B0IsGMerEDmE8VOf7aEELwsR3kWVSurv7YQuV7KFDCaGk5CnicEiufIKR5+GzzFd8gCV7Nj8uWEv4+ke7RxtjAcxNYQltDxXakFeQwjfyiUJI5GhqG9VDPxL3vFWFr7Lkdvs3+EY3tVpxFCAl6KydWrOTp8aKLXNilWQ1HeNTBZZHIcgJiluT/xWuYw3KuHDuWqyZYF16zNqC4wYAKEImnOjPqLEvGofUTLL7q/nwYxWEnb+WcWQbSxWo0c37bRIUdb8Ph1dYNvra9qVHzAD+qv3I++B1UKT2xG7U0VQUNe5gI1Wc8T0wQn1rB9SuGLPPNb7vWMoaL74eVvLiSpqCQ4D7tO+OPr5bnieJg5ABVwQbomABoC1XIAHrKsXLNXRGVVUeW5TLG7zfdakTWEqRBCLJi9ifhg8ZsJ9AfCUlp6+fp6KA6w+gGES/WAdzfoGpZ898v2Qfm3V6nr/bNin+EYorgBdTikSlmqEFVMjvlqXIdHZKo7kYmJ7RS23msJCQmckqdri8wRYPFzLmwUPoyDWbvDgutvwZ0v5tNshaT49qNVmBCho2zvjKDo3pcWpRSEy5GekAvmt2JuqgGq8NvHMS3RlFStE7JXtNvVgreTt6/nuIvEg1k0B47MIPiu0I3Ode3MpFGWdrWUXs7OmtRMaBOwV+Hri8Xpb+HjlQX+TOcE6ohRMiAyg9h2hvwIp1cTHyjOmt+iVh9lUEerwfukcCNRrT3MfiFUNMkayXhx/JHeCxtc3pmqQ5+j2R0IRoCD4aNHAYUGrKB1b4wF6uHA+Ez5y1TTnBctNsNfYJxL+4uVBI3m2nFz06MC44yDSPMs8PJUNjAf4Mc0ti7SXRPuBU4q1RAAM0NkVmkTRapabIanpfkiJz6gPrVhF9e4nI2ZwbbZGHf53LfMI8ocAX4u6XGJJ/oQJjbeeiGvDyb9InR3JjKKegvUTnLbCibYsnjhTnhCswM8vrOrAr9D2qBmr3IxO8wbx12SjflK47d3j6AI3Wf7lLNALymG1H/LRFSEqHe7fbGl/WTR64+IVgTztM0HuihrKyUYukuDDLUtW0FhQnNQEkzB+oTNYCQCt6VMeMiw1JEetYTDqpy4wcIcV5dH4s31JPraS3qIX6qz9/7rTLXMM+7hSYpPBKviphXZyTALFmTIlItdHFuwUJHOJYsBNumC/h2UuEl5hlk+4QEefdpPtJObd6528Sgyk/zKmB2+0aItb9TvZ8PgTxaiwvyNFyhbRIKxEC1vTbAozVUUIgwvXxLpAout9KtWOym1VUlKfqtS7s/6VbPFit7mjObF2rE8cCcHsXYmgGkmnou00iNP1goW3ktfvU9uVxN24QfClA/BsjvNsvZ+BujfyF7D7ZzXWrMVSbPNcup+eINcI++kn7WHKxC60Q1Assq8W+YKgds5hEhMf8GfS0MTuaKQOItnk1/7JvkptgViNC8rwxySJjFjQN49sMLzCplfXR6T+M2Zk7157hojsx+a+cW7xdDJZvWjihoEmII9Eb194Yp7ePX+joBGFoPnK2LLlaU2S7SHzpC6XFVfgjH77bu/fD20gzrUpytNzXe8ON9os0/znKmBdsVfN/s7YRu602xXwXB6pbrP0o5lNQ8gG12g+Nkpis9kgnIe9yQ3VlRobTuvLxYDHmBd3GtCLXh2VikpswIvdUEZFLOZlS4lz7xxO6zVRgHE/b/d9CiMkhcwywiYFwyVUn8eTNbxr0l6wZWcg4I2OYHW9L6FDGlR+Q2LwNX1xT2dajh/75H+AVeDNke6MQIUxqIPreBlLUeumpFj24VLy/qR7bE7hV4EejV9YgzQjFo0HWx0djRV3l/q7kLx+5yvX3wNOnHx6+ZQkSr0UGBSR1JZpZbEWF2WrIZeqXUl0RBA3+5GHPBFHVTeWr8CRnLf3uAFRW/x3/kCrEArPqhHnjvu493ifI5zSq/KfqIXAMUMZfXQ3OrF0sPqwdA7MkUT6toeIjH61WESxSJOGJgz0QURZtYrn/7lPDRDbO6jFzHGh9WYIXBDjbxAf8Ggp6Fw/sBQxFCP7kjbeRc+KKsLqp5AiNFWsinNRBoiJynA/mYNO2dlBGb/rXGhMJs5ZTzPP2dnZ53W86JbicSXJZoyNQHwj1VlEbw+9vfLyjnxIswsN0d6iBVhtMQkGCaHKLzWoW3tD2N6iI4bUWOcSviRRfioYg+i3KulypcYK8A2MhZGP5on5uZjTIc9XpWBnLy8L0IKIY6UoXJcRrLEsSbMOvGRjYZ91IsuZHovihuJFchaNsx6/nyZYnpHEWxuGeHV5Z6fJwhxkIVypK3UdYzXwh+eWG7nYPbVIVtSzb8sNAOejuPWEloN/LLBTLh1oILfR4/mG7OK+S/f0wbD2UwWKSa1Feo4YKOUb/4KstQe7l5SjWuQBKlU3qc40Z/n7LU/D0LWEdQRn7mkStiCHC9x4drE3ouQxucMkRg64WVOc/kPtOdv1dRch0MCEDT9ZQ3pwr4pRce+78hnuta5/4hF9tuHTCxnl5f4njFipSFPanRtDW02IFWIZx1S5xFZIz+P+EyBYy4jt2xRlm6fFBSRQj12Ky5Walte/DHTPKbIYZZkWVq7kbk06k+/zHqNwxE1+vi4UmO5E0Aa8M58hR67qE9OPSBAOVKhQvwd7r8rmknuRBtf3sthHNkpbYaIIHDA893U/XEaOe4gPzcSD7mGykyeoBvoFCUBOx0PeE4RPNAuyJDnkSnw7fZaePmZ+2hMi8kR2X9ZcMJpjlNSNhkcjY5HAIxsIo6jh9WEz3nCOqS0nhiyBSJrOGPcw9Gh1jT9bw1eoT03Qwc7tsMfvOqJvTOSIxqOjH8Irps8qvkx9QvUMQZO5jykHF6J+/EZ/jaRYUj+AFke/a+f6L5dYHnpQCZr+HOlJxW8wrAabwU6WrNTaoJ5sFh9emXpEgMnaUx4+Pfq+gO+lge7OotgEPsMsgQMwHRx6hy+6WQM0rfmL9J4ggqNozwShpMGUAQaolKtnsLZtpMftS4iDuNwlL7oeb7PhShHdlsaeruOlxUFUnHhPEP58pIoa1xlhtp60ZB1L0LJ6jxEnAFL2Ji0W/IFuVbgqiJonGJjMPfMGpdQfIBe8PAC2Du/ybxoBD2KOjOEV74mcLVdqvxTX1W62QGjkHZxYqqhcqRzXN4dgJAqIATXMsnRB5ROu7IFO9cMdQZ8AAAA=;" vertex="1" parent="WIyWlLk6GJQsqaUBKTNV-1">
          <mxGeometry x="-420" y="48.75" width="105.24" height="60" as="geometry" />
        </mxCell>
      </root>
    </mxGraphModel>
  </diagram>
</mxfile>
